<mxfile host="65bd71144e">
    <diagram id="T9uuaTeBy4bPSP1g8a4x" name="Page-1">
        <mxGraphModel dx="477" dy="291" grid="1" gridSize="10" guides="1" tooltips="1" connect="1" arrows="1" fold="1" page="1" pageScale="1" pageWidth="827" pageHeight="1169" background="#FFFFFF" math="0" shadow="0">
            <root>
                <mxCell id="0"/>
                <mxCell id="1" parent="0"/>
                <mxCell id="739" value="" style="endArrow=none;html=1;fontSize=12;fontColor=#0000FF;fillColor=#dae8fc;strokeColor=#6c8ebf;exitX=0;exitY=0;exitDx=0;exitDy=0;" parent="1" source="738" edge="1">
                    <mxGeometry width="50" height="50" relative="1" as="geometry">
                        <mxPoint x="150" y="150" as="sourcePoint"/>
                        <mxPoint x="170" y="180" as="targetPoint"/>
                    </mxGeometry>
                </mxCell>
                <mxCell id="538" value="B" style="rounded=0;whiteSpace=wrap;html=1;fontStyle=0;fontSize=12;fillColor=none;strokeColor=none;" parent="1" vertex="1">
                    <mxGeometry x="150" y="180" width="20" height="20" as="geometry"/>
                </mxCell>
                <mxCell id="539" value="C" style="rounded=0;whiteSpace=wrap;html=1;fontStyle=0;fontSize=12;fillColor=none;strokeColor=none;" parent="1" vertex="1">
                    <mxGeometry x="150" y="200" width="20" height="20" as="geometry"/>
                </mxCell>
                <mxCell id="540" value="A" style="rounded=0;whiteSpace=wrap;html=1;fontStyle=0;fontSize=12;fillColor=none;strokeColor=none;" parent="1" vertex="1">
                    <mxGeometry x="150" y="220" width="20" height="20" as="geometry"/>
                </mxCell>
                <mxCell id="541" value="K" style="rounded=0;whiteSpace=wrap;html=1;fontStyle=0;fontSize=12;fillColor=none;strokeColor=none;" parent="1" vertex="1">
                    <mxGeometry x="150" y="240" width="20" height="20" as="geometry"/>
                </mxCell>
                <mxCell id="542" value="L" style="rounded=0;whiteSpace=wrap;html=1;fontStyle=0;fontSize=12;fillColor=none;strokeColor=none;" parent="1" vertex="1">
                    <mxGeometry x="150" y="260" width="20" height="20" as="geometry"/>
                </mxCell>
                <mxCell id="543" value="J" style="rounded=0;whiteSpace=wrap;html=1;fontStyle=0;fontSize=12;fillColor=none;strokeColor=none;" parent="1" vertex="1">
                    <mxGeometry x="150" y="280" width="20" height="20" as="geometry"/>
                </mxCell>
                <mxCell id="544" value="F" style="rounded=0;whiteSpace=wrap;html=1;fontStyle=0;fontSize=12;fillColor=none;strokeColor=none;" parent="1" vertex="1">
                    <mxGeometry x="150" y="300" width="20" height="20" as="geometry"/>
                </mxCell>
                <mxCell id="545" value="I" style="rounded=0;whiteSpace=wrap;html=1;fontStyle=0;fontSize=12;fillColor=none;strokeColor=none;" parent="1" vertex="1">
                    <mxGeometry x="150" y="320" width="20" height="20" as="geometry"/>
                </mxCell>
                <mxCell id="546" value="B" style="rounded=0;whiteSpace=wrap;html=1;fontStyle=0;fontSize=12;fillColor=none;strokeColor=none;" parent="1" vertex="1">
                    <mxGeometry x="170" y="160" width="20" height="20" as="geometry"/>
                </mxCell>
                <mxCell id="547" value="C" style="rounded=0;whiteSpace=wrap;html=1;fontStyle=0;fontSize=12;fillColor=none;strokeColor=none;" parent="1" vertex="1">
                    <mxGeometry x="190" y="160" width="20" height="20" as="geometry"/>
                </mxCell>
                <mxCell id="548" value="A" style="rounded=0;whiteSpace=wrap;html=1;fontStyle=0;fontSize=12;fillColor=none;strokeColor=none;" parent="1" vertex="1">
                    <mxGeometry x="210" y="160" width="20" height="20" as="geometry"/>
                </mxCell>
                <mxCell id="549" value="K" style="rounded=0;whiteSpace=wrap;html=1;fontStyle=0;fontSize=12;fillColor=none;strokeColor=none;" parent="1" vertex="1">
                    <mxGeometry x="230" y="160" width="20" height="20" as="geometry"/>
                </mxCell>
                <mxCell id="550" value="L" style="rounded=0;whiteSpace=wrap;html=1;fontStyle=0;fontSize=12;fillColor=none;strokeColor=none;" parent="1" vertex="1">
                    <mxGeometry x="250" y="160" width="20" height="20" as="geometry"/>
                </mxCell>
                <mxCell id="551" value="J" style="rounded=0;whiteSpace=wrap;html=1;fontStyle=0;fontSize=12;fillColor=none;strokeColor=none;" parent="1" vertex="1">
                    <mxGeometry x="270" y="160" width="20" height="20" as="geometry"/>
                </mxCell>
                <mxCell id="552" value="F" style="rounded=0;whiteSpace=wrap;html=1;fontStyle=0;fontSize=12;fillColor=none;strokeColor=none;" parent="1" vertex="1">
                    <mxGeometry x="290" y="160" width="20" height="20" as="geometry"/>
                </mxCell>
                <mxCell id="553" value="I" style="rounded=0;whiteSpace=wrap;html=1;fontStyle=0;fontSize=12;fillColor=none;strokeColor=none;" parent="1" vertex="1">
                    <mxGeometry x="310" y="160" width="20" height="20" as="geometry"/>
                </mxCell>
                <mxCell id="554" value="•" style="rounded=0;whiteSpace=wrap;html=1;fontStyle=0;fontSize=12;fillColor=none;strokeColor=none;fontColor=#0000FF;" parent="1" vertex="1">
                    <mxGeometry x="170" y="180" width="20" height="20" as="geometry"/>
                </mxCell>
                <mxCell id="555" value="X" style="rounded=0;whiteSpace=wrap;html=1;fontStyle=0;fontSize=12;fillColor=none;strokeColor=none;" parent="1" vertex="1">
                    <mxGeometry x="170" y="240" width="20" height="20" as="geometry"/>
                </mxCell>
                <mxCell id="556" value="" style="rounded=0;whiteSpace=wrap;html=1;fontStyle=0;fontSize=12;fillColor=none;strokeColor=none;" parent="1" vertex="1">
                    <mxGeometry x="170" y="260" width="20" height="20" as="geometry"/>
                </mxCell>
                <mxCell id="557" value="X" style="rounded=0;whiteSpace=wrap;html=1;fontStyle=0;fontSize=12;fillColor=none;strokeColor=none;" parent="1" vertex="1">
                    <mxGeometry x="170" y="280" width="20" height="20" as="geometry"/>
                </mxCell>
                <mxCell id="558" value="X" style="rounded=0;whiteSpace=wrap;html=1;fontStyle=0;fontSize=12;fillColor=none;strokeColor=none;" parent="1" vertex="1">
                    <mxGeometry x="170" y="300" width="20" height="20" as="geometry"/>
                </mxCell>
                <mxCell id="560" value="" style="rounded=0;whiteSpace=wrap;html=1;fontStyle=0;fontSize=12;fillColor=none;strokeColor=none;" parent="1" vertex="1">
                    <mxGeometry x="190" y="180" width="20" height="20" as="geometry"/>
                </mxCell>
                <mxCell id="561" value="•" style="rounded=0;whiteSpace=wrap;html=1;fontStyle=0;fontSize=12;fillColor=none;strokeColor=none;fontColor=#0000FF;" parent="1" vertex="1">
                    <mxGeometry x="190" y="200" width="20" height="20" as="geometry"/>
                </mxCell>
                <mxCell id="565" value="X" style="rounded=0;whiteSpace=wrap;html=1;fontStyle=0;fontSize=12;fillColor=none;strokeColor=none;" parent="1" vertex="1">
                    <mxGeometry x="190" y="320" width="20" height="20" as="geometry"/>
                </mxCell>
                <mxCell id="567" value="" style="rounded=0;whiteSpace=wrap;html=1;fontStyle=0;fontSize=12;fillColor=none;strokeColor=none;" parent="1" vertex="1">
                    <mxGeometry x="210" y="200" width="20" height="20" as="geometry"/>
                </mxCell>
                <mxCell id="568" value="•" style="rounded=0;whiteSpace=wrap;html=1;fontStyle=0;fontSize=12;fillColor=none;strokeColor=none;fontColor=#0000FF;" parent="1" vertex="1">
                    <mxGeometry x="210" y="220" width="20" height="20" as="geometry"/>
                </mxCell>
                <mxCell id="569" value="" style="rounded=0;whiteSpace=wrap;html=1;fontStyle=0;fontSize=12;fillColor=none;strokeColor=none;" parent="1" vertex="1">
                    <mxGeometry x="210" y="280" width="20" height="20" as="geometry"/>
                </mxCell>
                <mxCell id="570" value="" style="rounded=0;whiteSpace=wrap;html=1;fontStyle=0;fontSize=12;fillColor=none;strokeColor=none;" parent="1" vertex="1">
                    <mxGeometry x="210" y="300" width="20" height="20" as="geometry"/>
                </mxCell>
                <mxCell id="571" value="" style="rounded=0;whiteSpace=wrap;html=1;fontStyle=0;fontSize=12;fillColor=none;strokeColor=none;" parent="1" vertex="1">
                    <mxGeometry x="210" y="320" width="20" height="20" as="geometry"/>
                </mxCell>
                <mxCell id="572" value="" style="rounded=0;whiteSpace=wrap;html=1;fontStyle=0;fontSize=12;fillColor=none;strokeColor=none;" parent="1" vertex="1">
                    <mxGeometry x="230" y="180" width="20" height="20" as="geometry"/>
                </mxCell>
                <mxCell id="573" value="" style="rounded=0;whiteSpace=wrap;html=1;fontStyle=0;fontSize=12;fillColor=none;strokeColor=none;" parent="1" vertex="1">
                    <mxGeometry x="230" y="200" width="20" height="20" as="geometry"/>
                </mxCell>
                <mxCell id="574" value="" style="rounded=0;whiteSpace=wrap;html=1;fontStyle=0;fontSize=12;fillColor=none;strokeColor=none;" parent="1" vertex="1">
                    <mxGeometry x="230" y="220" width="20" height="20" as="geometry"/>
                </mxCell>
                <mxCell id="575" value="•" style="rounded=0;whiteSpace=wrap;html=1;fontStyle=0;fontSize=12;fillColor=none;strokeColor=none;fontColor=#0000FF;" parent="1" vertex="1">
                    <mxGeometry x="230" y="240" width="20" height="20" as="geometry"/>
                </mxCell>
                <mxCell id="576" value="X" style="rounded=0;whiteSpace=wrap;html=1;fontStyle=0;fontSize=12;fillColor=none;strokeColor=none;" parent="1" vertex="1">
                    <mxGeometry x="230" y="260" width="20" height="20" as="geometry"/>
                </mxCell>
                <mxCell id="577" value="X" style="rounded=0;whiteSpace=wrap;html=1;fontStyle=0;fontSize=12;fillColor=none;strokeColor=none;" parent="1" vertex="1">
                    <mxGeometry x="230" y="280" width="20" height="20" as="geometry"/>
                </mxCell>
                <mxCell id="579" value="" style="rounded=0;whiteSpace=wrap;html=1;fontStyle=0;fontSize=12;fillColor=none;strokeColor=none;" parent="1" vertex="1">
                    <mxGeometry x="250" y="180" width="20" height="20" as="geometry"/>
                </mxCell>
                <mxCell id="580" value="" style="rounded=0;whiteSpace=wrap;html=1;fontStyle=0;fontSize=12;fillColor=none;strokeColor=none;" parent="1" vertex="1">
                    <mxGeometry x="250" y="200" width="20" height="20" as="geometry"/>
                </mxCell>
                <mxCell id="581" value="" style="rounded=0;whiteSpace=wrap;html=1;fontStyle=0;fontSize=12;fillColor=none;strokeColor=none;" parent="1" vertex="1">
                    <mxGeometry x="250" y="220" width="20" height="20" as="geometry"/>
                </mxCell>
                <mxCell id="583" value="•" style="rounded=0;whiteSpace=wrap;html=1;fontStyle=0;fontSize=12;fillColor=none;strokeColor=none;fontColor=#0000FF;" parent="1" vertex="1">
                    <mxGeometry x="250" y="260" width="20" height="20" as="geometry"/>
                </mxCell>
                <mxCell id="584" value="X" style="rounded=0;whiteSpace=wrap;html=1;fontStyle=0;fontSize=12;fillColor=none;strokeColor=none;" parent="1" vertex="1">
                    <mxGeometry x="250" y="300" width="20" height="20" as="geometry"/>
                </mxCell>
                <mxCell id="585" value="" style="rounded=0;whiteSpace=wrap;html=1;fontStyle=0;fontSize=12;fillColor=none;strokeColor=none;" parent="1" vertex="1">
                    <mxGeometry x="250" y="320" width="20" height="20" as="geometry"/>
                </mxCell>
                <mxCell id="586" value="" style="rounded=0;whiteSpace=wrap;html=1;fontStyle=0;fontSize=12;fillColor=none;strokeColor=none;" parent="1" vertex="1">
                    <mxGeometry x="270" y="180" width="20" height="20" as="geometry"/>
                </mxCell>
                <mxCell id="587" value="" style="rounded=0;whiteSpace=wrap;html=1;fontStyle=0;fontSize=12;fillColor=none;strokeColor=none;" parent="1" vertex="1">
                    <mxGeometry x="270" y="200" width="20" height="20" as="geometry"/>
                </mxCell>
                <mxCell id="588" value="" style="rounded=0;whiteSpace=wrap;html=1;fontStyle=0;fontSize=12;fillColor=none;strokeColor=none;" parent="1" vertex="1">
                    <mxGeometry x="270" y="220" width="20" height="20" as="geometry"/>
                </mxCell>
                <mxCell id="591" value="•" style="rounded=0;whiteSpace=wrap;html=1;fontStyle=0;fontSize=12;fillColor=none;strokeColor=none;fontColor=#0000FF;" parent="1" vertex="1">
                    <mxGeometry x="270" y="280" width="20" height="20" as="geometry"/>
                </mxCell>
                <mxCell id="592" value="X" style="rounded=0;whiteSpace=wrap;html=1;fontStyle=0;fontSize=12;fillColor=none;strokeColor=none;" parent="1" vertex="1">
                    <mxGeometry x="270" y="320" width="20" height="20" as="geometry"/>
                </mxCell>
                <mxCell id="593" value="" style="rounded=0;whiteSpace=wrap;html=1;fontStyle=0;fontSize=12;fillColor=none;strokeColor=none;" parent="1" vertex="1">
                    <mxGeometry x="290" y="180" width="20" height="20" as="geometry"/>
                </mxCell>
                <mxCell id="594" value="" style="rounded=0;whiteSpace=wrap;html=1;fontStyle=0;fontSize=12;fillColor=none;strokeColor=none;" parent="1" vertex="1">
                    <mxGeometry x="290" y="200" width="20" height="20" as="geometry"/>
                </mxCell>
                <mxCell id="595" value="" style="rounded=0;whiteSpace=wrap;html=1;fontStyle=0;fontSize=12;fillColor=none;strokeColor=none;" parent="1" vertex="1">
                    <mxGeometry x="290" y="240" width="20" height="20" as="geometry"/>
                </mxCell>
                <mxCell id="596" value="" style="rounded=0;whiteSpace=wrap;html=1;fontStyle=0;fontSize=12;fillColor=none;strokeColor=none;" parent="1" vertex="1">
                    <mxGeometry x="290" y="260" width="20" height="20" as="geometry"/>
                </mxCell>
                <mxCell id="597" value="" style="rounded=0;whiteSpace=wrap;html=1;fontStyle=0;fontSize=12;fillColor=none;strokeColor=none;" parent="1" vertex="1">
                    <mxGeometry x="290" y="280" width="20" height="20" as="geometry"/>
                </mxCell>
                <mxCell id="598" value="•" style="rounded=0;whiteSpace=wrap;html=1;fontStyle=0;fontSize=12;fillColor=none;strokeColor=none;fontColor=#0000FF;" parent="1" vertex="1">
                    <mxGeometry x="290" y="300" width="20" height="20" as="geometry"/>
                </mxCell>
                <mxCell id="599" value="" style="rounded=0;whiteSpace=wrap;html=1;fontStyle=0;fontSize=12;fillColor=none;strokeColor=none;" parent="1" vertex="1">
                    <mxGeometry x="310" y="180" width="20" height="20" as="geometry"/>
                </mxCell>
                <mxCell id="600" value="" style="rounded=0;whiteSpace=wrap;html=1;fontStyle=0;fontSize=12;fillColor=none;strokeColor=none;" parent="1" vertex="1">
                    <mxGeometry x="310" y="200" width="20" height="20" as="geometry"/>
                </mxCell>
                <mxCell id="601" value="" style="rounded=0;whiteSpace=wrap;html=1;fontStyle=0;fontSize=12;fillColor=none;strokeColor=none;" parent="1" vertex="1">
                    <mxGeometry x="310" y="220" width="20" height="20" as="geometry"/>
                </mxCell>
                <mxCell id="602" value="" style="rounded=0;whiteSpace=wrap;html=1;fontStyle=0;fontSize=12;fillColor=none;strokeColor=none;" parent="1" vertex="1">
                    <mxGeometry x="310" y="240" width="20" height="20" as="geometry"/>
                </mxCell>
                <mxCell id="604" value="" style="rounded=0;whiteSpace=wrap;html=1;fontStyle=0;fontSize=12;fillColor=none;strokeColor=none;" parent="1" vertex="1">
                    <mxGeometry x="310" y="280" width="20" height="20" as="geometry"/>
                </mxCell>
                <mxCell id="605" value="X" style="rounded=0;whiteSpace=wrap;html=1;fontStyle=0;fontSize=12;fillColor=none;strokeColor=none;" parent="1" vertex="1">
                    <mxGeometry x="310" y="300" width="20" height="20" as="geometry"/>
                </mxCell>
                <mxCell id="606" value="•" style="rounded=0;whiteSpace=wrap;html=1;fontStyle=0;fontSize=12;fillColor=none;strokeColor=none;fontColor=#0000FF;" parent="1" vertex="1">
                    <mxGeometry x="310" y="320" width="20" height="20" as="geometry"/>
                </mxCell>
                <mxCell id="607" value="E" style="rounded=0;whiteSpace=wrap;html=1;fontStyle=0;fontSize=12;fillColor=none;strokeColor=none;" parent="1" vertex="1">
                    <mxGeometry x="150" y="340" width="20" height="20" as="geometry"/>
                </mxCell>
                <mxCell id="608" value="D" style="rounded=0;whiteSpace=wrap;html=1;fontStyle=0;fontSize=12;fillColor=none;strokeColor=none;" parent="1" vertex="1">
                    <mxGeometry x="150" y="360" width="20" height="20" as="geometry"/>
                </mxCell>
                <mxCell id="609" value="H" style="rounded=0;whiteSpace=wrap;html=1;fontStyle=0;fontSize=12;fillColor=none;strokeColor=none;" parent="1" vertex="1">
                    <mxGeometry x="150" y="380" width="20" height="20" as="geometry"/>
                </mxCell>
                <mxCell id="610" value="G" style="rounded=0;whiteSpace=wrap;html=1;fontStyle=0;fontSize=12;fillColor=none;strokeColor=none;" parent="1" vertex="1">
                    <mxGeometry x="150" y="400" width="20" height="20" as="geometry"/>
                </mxCell>
                <mxCell id="611" value="E" style="rounded=0;whiteSpace=wrap;html=1;fontStyle=0;fontSize=12;fillColor=none;strokeColor=none;" parent="1" vertex="1">
                    <mxGeometry x="330" y="160" width="20" height="20" as="geometry"/>
                </mxCell>
                <mxCell id="612" value="D" style="rounded=0;whiteSpace=wrap;html=1;fontStyle=0;fontSize=12;fillColor=none;strokeColor=none;" parent="1" vertex="1">
                    <mxGeometry x="350" y="160" width="20" height="20" as="geometry"/>
                </mxCell>
                <mxCell id="613" value="H" style="rounded=0;whiteSpace=wrap;html=1;fontStyle=0;fontSize=12;fillColor=none;strokeColor=none;" parent="1" vertex="1">
                    <mxGeometry x="370" y="160" width="20" height="20" as="geometry"/>
                </mxCell>
                <mxCell id="614" value="G" style="rounded=0;whiteSpace=wrap;html=1;fontStyle=0;fontSize=12;fillColor=none;strokeColor=none;" parent="1" vertex="1">
                    <mxGeometry x="390" y="160" width="20" height="20" as="geometry"/>
                </mxCell>
                <mxCell id="615" value="" style="rounded=0;whiteSpace=wrap;html=1;fontStyle=0;fontSize=12;fillColor=none;strokeColor=none;" parent="1" vertex="1">
                    <mxGeometry x="170" y="340" width="20" height="20" as="geometry"/>
                </mxCell>
                <mxCell id="616" value="" style="rounded=0;whiteSpace=wrap;html=1;fontStyle=0;fontSize=12;fillColor=none;strokeColor=none;" parent="1" vertex="1">
                    <mxGeometry x="170" y="360" width="20" height="20" as="geometry"/>
                </mxCell>
                <mxCell id="617" value="" style="rounded=0;whiteSpace=wrap;html=1;fontStyle=0;fontSize=12;fillColor=none;strokeColor=none;" parent="1" vertex="1">
                    <mxGeometry x="170" y="380" width="20" height="20" as="geometry"/>
                </mxCell>
                <mxCell id="619" value="" style="rounded=0;whiteSpace=wrap;html=1;fontStyle=0;fontSize=12;fillColor=none;strokeColor=none;" parent="1" vertex="1">
                    <mxGeometry x="190" y="340" width="20" height="20" as="geometry"/>
                </mxCell>
                <mxCell id="622" value="" style="rounded=0;whiteSpace=wrap;html=1;fontStyle=0;fontSize=12;fillColor=none;strokeColor=none;" parent="1" vertex="1">
                    <mxGeometry x="190" y="400" width="20" height="20" as="geometry"/>
                </mxCell>
                <mxCell id="626" value="" style="rounded=0;whiteSpace=wrap;html=1;fontStyle=0;fontSize=12;fillColor=none;strokeColor=none;" parent="1" vertex="1">
                    <mxGeometry x="210" y="400" width="20" height="20" as="geometry"/>
                </mxCell>
                <mxCell id="627" value="" style="rounded=0;whiteSpace=wrap;html=1;fontStyle=0;fontSize=12;fillColor=none;strokeColor=none;" parent="1" vertex="1">
                    <mxGeometry x="230" y="340" width="20" height="20" as="geometry"/>
                </mxCell>
                <mxCell id="628" value="" style="rounded=0;whiteSpace=wrap;html=1;fontStyle=0;fontSize=12;fillColor=none;strokeColor=none;" parent="1" vertex="1">
                    <mxGeometry x="230" y="360" width="20" height="20" as="geometry"/>
                </mxCell>
                <mxCell id="629" value="" style="rounded=0;whiteSpace=wrap;html=1;fontStyle=0;fontSize=12;fillColor=none;strokeColor=none;" parent="1" vertex="1">
                    <mxGeometry x="230" y="380" width="20" height="20" as="geometry"/>
                </mxCell>
                <mxCell id="630" value="" style="rounded=0;whiteSpace=wrap;html=1;fontStyle=0;fontSize=12;fillColor=none;strokeColor=none;" parent="1" vertex="1">
                    <mxGeometry x="230" y="400" width="20" height="20" as="geometry"/>
                </mxCell>
                <mxCell id="631" value="" style="rounded=0;whiteSpace=wrap;html=1;fontStyle=0;fontSize=12;fillColor=none;strokeColor=none;" parent="1" vertex="1">
                    <mxGeometry x="250" y="360" width="20" height="20" as="geometry"/>
                </mxCell>
                <mxCell id="632" value="" style="rounded=0;whiteSpace=wrap;html=1;fontStyle=0;fontSize=12;fillColor=none;strokeColor=none;" parent="1" vertex="1">
                    <mxGeometry x="250" y="380" width="20" height="20" as="geometry"/>
                </mxCell>
                <mxCell id="633" value="" style="rounded=0;whiteSpace=wrap;html=1;fontStyle=0;fontSize=12;fillColor=none;strokeColor=none;" parent="1" vertex="1">
                    <mxGeometry x="250" y="400" width="20" height="20" as="geometry"/>
                </mxCell>
                <mxCell id="635" value="" style="rounded=0;whiteSpace=wrap;html=1;fontStyle=0;fontSize=12;fillColor=none;strokeColor=none;" parent="1" vertex="1">
                    <mxGeometry x="270" y="360" width="20" height="20" as="geometry"/>
                </mxCell>
                <mxCell id="636" value="" style="rounded=0;whiteSpace=wrap;html=1;fontStyle=0;fontSize=12;fillColor=none;strokeColor=none;" parent="1" vertex="1">
                    <mxGeometry x="270" y="380" width="20" height="20" as="geometry"/>
                </mxCell>
                <mxCell id="637" value="" style="rounded=0;whiteSpace=wrap;html=1;fontStyle=0;fontSize=12;fillColor=none;strokeColor=none;" parent="1" vertex="1">
                    <mxGeometry x="270" y="400" width="20" height="20" as="geometry"/>
                </mxCell>
                <mxCell id="638" value="X" style="rounded=0;whiteSpace=wrap;html=1;fontStyle=0;fontSize=12;fillColor=none;strokeColor=none;" parent="1" vertex="1">
                    <mxGeometry x="290" y="340" width="20" height="20" as="geometry"/>
                </mxCell>
                <mxCell id="639" value="X" style="rounded=0;whiteSpace=wrap;html=1;fontStyle=0;fontSize=12;fillColor=none;strokeColor=none;" parent="1" vertex="1">
                    <mxGeometry x="290" y="360" width="20" height="20" as="geometry"/>
                </mxCell>
                <mxCell id="640" value="" style="rounded=0;whiteSpace=wrap;html=1;fontStyle=0;fontSize=12;fillColor=none;strokeColor=none;" parent="1" vertex="1">
                    <mxGeometry x="290" y="380" width="20" height="20" as="geometry"/>
                </mxCell>
                <mxCell id="641" value="" style="rounded=0;whiteSpace=wrap;html=1;fontStyle=0;fontSize=12;fillColor=none;strokeColor=none;" parent="1" vertex="1">
                    <mxGeometry x="290" y="400" width="20" height="20" as="geometry"/>
                </mxCell>
                <mxCell id="642" value="" style="rounded=0;whiteSpace=wrap;html=1;fontStyle=0;fontSize=12;fillColor=none;strokeColor=none;" parent="1" vertex="1">
                    <mxGeometry x="310" y="340" width="20" height="20" as="geometry"/>
                </mxCell>
                <mxCell id="643" value="" style="rounded=0;whiteSpace=wrap;html=1;fontStyle=0;fontSize=12;fillColor=none;strokeColor=none;" parent="1" vertex="1">
                    <mxGeometry x="310" y="360" width="20" height="20" as="geometry"/>
                </mxCell>
                <mxCell id="644" value="X" style="rounded=0;whiteSpace=wrap;html=1;fontStyle=0;fontSize=12;fillColor=none;strokeColor=none;" parent="1" vertex="1">
                    <mxGeometry x="310" y="380" width="20" height="20" as="geometry"/>
                </mxCell>
                <mxCell id="645" value="" style="rounded=0;whiteSpace=wrap;html=1;fontStyle=0;fontSize=12;fillColor=none;strokeColor=none;" parent="1" vertex="1">
                    <mxGeometry x="310" y="400" width="20" height="20" as="geometry"/>
                </mxCell>
                <mxCell id="646" value="" style="rounded=0;whiteSpace=wrap;html=1;fontStyle=0;fontSize=12;fillColor=none;strokeColor=none;" parent="1" vertex="1">
                    <mxGeometry x="330" y="180" width="20" height="20" as="geometry"/>
                </mxCell>
                <mxCell id="647" value="" style="rounded=0;whiteSpace=wrap;html=1;fontStyle=0;fontSize=12;fillColor=none;strokeColor=none;" parent="1" vertex="1">
                    <mxGeometry x="330" y="200" width="20" height="20" as="geometry"/>
                </mxCell>
                <mxCell id="648" value="" style="rounded=0;whiteSpace=wrap;html=1;fontStyle=0;fontSize=12;fillColor=none;strokeColor=none;" parent="1" vertex="1">
                    <mxGeometry x="330" y="220" width="20" height="20" as="geometry"/>
                </mxCell>
                <mxCell id="649" value="" style="rounded=0;whiteSpace=wrap;html=1;fontStyle=0;fontSize=12;fillColor=none;strokeColor=none;" parent="1" vertex="1">
                    <mxGeometry x="330" y="240" width="20" height="20" as="geometry"/>
                </mxCell>
                <mxCell id="650" value="" style="rounded=0;whiteSpace=wrap;html=1;fontStyle=0;fontSize=12;fillColor=none;strokeColor=none;" parent="1" vertex="1">
                    <mxGeometry x="330" y="300" width="20" height="20" as="geometry"/>
                </mxCell>
                <mxCell id="652" value="" style="rounded=0;whiteSpace=wrap;html=1;fontStyle=0;fontSize=12;fillColor=none;strokeColor=none;" parent="1" vertex="1">
                    <mxGeometry x="350" y="180" width="20" height="20" as="geometry"/>
                </mxCell>
                <mxCell id="653" value="" style="rounded=0;whiteSpace=wrap;html=1;fontStyle=0;fontSize=12;fillColor=none;strokeColor=none;" parent="1" vertex="1">
                    <mxGeometry x="350" y="200" width="20" height="20" as="geometry"/>
                </mxCell>
                <mxCell id="654" value="" style="rounded=0;whiteSpace=wrap;html=1;fontStyle=0;fontSize=12;fillColor=none;strokeColor=none;" parent="1" vertex="1">
                    <mxGeometry x="350" y="220" width="20" height="20" as="geometry"/>
                </mxCell>
                <mxCell id="655" value="" style="rounded=0;whiteSpace=wrap;html=1;fontStyle=0;fontSize=12;fillColor=none;strokeColor=none;" parent="1" vertex="1">
                    <mxGeometry x="350" y="240" width="20" height="20" as="geometry"/>
                </mxCell>
                <mxCell id="656" value="" style="rounded=0;whiteSpace=wrap;html=1;fontStyle=0;fontSize=12;fillColor=none;strokeColor=none;" parent="1" vertex="1">
                    <mxGeometry x="350" y="260" width="20" height="20" as="geometry"/>
                </mxCell>
                <mxCell id="657" value="" style="rounded=0;whiteSpace=wrap;html=1;fontStyle=0;fontSize=12;fillColor=none;strokeColor=none;" parent="1" vertex="1">
                    <mxGeometry x="350" y="320" width="20" height="20" as="geometry"/>
                </mxCell>
                <mxCell id="658" value="" style="rounded=0;whiteSpace=wrap;html=1;fontStyle=0;fontSize=12;fillColor=none;strokeColor=none;" parent="1" vertex="1">
                    <mxGeometry x="370" y="180" width="20" height="20" as="geometry"/>
                </mxCell>
                <mxCell id="659" value="" style="rounded=0;whiteSpace=wrap;html=1;fontStyle=0;fontSize=12;fillColor=none;strokeColor=none;" parent="1" vertex="1">
                    <mxGeometry x="370" y="200" width="20" height="20" as="geometry"/>
                </mxCell>
                <mxCell id="660" value="" style="rounded=0;whiteSpace=wrap;html=1;fontStyle=0;fontSize=12;fillColor=none;strokeColor=none;" parent="1" vertex="1">
                    <mxGeometry x="370" y="240" width="20" height="20" as="geometry"/>
                </mxCell>
                <mxCell id="662" value="" style="rounded=0;whiteSpace=wrap;html=1;fontStyle=0;fontSize=12;fillColor=none;strokeColor=none;" parent="1" vertex="1">
                    <mxGeometry x="370" y="280" width="20" height="20" as="geometry"/>
                </mxCell>
                <mxCell id="663" value="" style="rounded=0;whiteSpace=wrap;html=1;fontStyle=0;fontSize=12;fillColor=none;strokeColor=none;" parent="1" vertex="1">
                    <mxGeometry x="390" y="180" width="20" height="20" as="geometry"/>
                </mxCell>
                <mxCell id="664" value="" style="rounded=0;whiteSpace=wrap;html=1;fontStyle=0;fontSize=12;fillColor=none;strokeColor=none;" parent="1" vertex="1">
                    <mxGeometry x="390" y="200" width="20" height="20" as="geometry"/>
                </mxCell>
                <mxCell id="665" value="" style="rounded=0;whiteSpace=wrap;html=1;fontStyle=0;fontSize=12;fillColor=none;strokeColor=none;" parent="1" vertex="1">
                    <mxGeometry x="390" y="220" width="20" height="20" as="geometry"/>
                </mxCell>
                <mxCell id="667" value="" style="rounded=0;whiteSpace=wrap;html=1;fontStyle=0;fontSize=12;fillColor=none;strokeColor=none;" parent="1" vertex="1">
                    <mxGeometry x="390" y="260" width="20" height="20" as="geometry"/>
                </mxCell>
                <mxCell id="669" value="" style="rounded=0;whiteSpace=wrap;html=1;fontStyle=0;fontSize=12;fillColor=none;strokeColor=none;" parent="1" vertex="1">
                    <mxGeometry x="390" y="300" width="20" height="20" as="geometry"/>
                </mxCell>
                <mxCell id="670" value="•" style="rounded=0;whiteSpace=wrap;html=1;fontStyle=0;fontSize=12;fillColor=none;strokeColor=none;fontColor=#0000FF;" parent="1" vertex="1">
                    <mxGeometry x="330" y="340" width="20" height="20" as="geometry"/>
                </mxCell>
                <mxCell id="671" value="X" style="rounded=0;whiteSpace=wrap;html=1;fontStyle=0;fontSize=12;fillColor=none;strokeColor=none;" parent="1" vertex="1">
                    <mxGeometry x="330" y="360" width="20" height="20" as="geometry"/>
                </mxCell>
                <mxCell id="672" value="" style="rounded=0;whiteSpace=wrap;html=1;fontStyle=0;fontSize=12;fillColor=none;strokeColor=none;" parent="1" vertex="1">
                    <mxGeometry x="330" y="380" width="20" height="20" as="geometry"/>
                </mxCell>
                <mxCell id="675" value="•" style="rounded=0;whiteSpace=wrap;html=1;fontStyle=0;fontSize=12;fillColor=none;strokeColor=none;fontColor=#0000FF;" parent="1" vertex="1">
                    <mxGeometry x="350" y="360" width="20" height="20" as="geometry"/>
                </mxCell>
                <mxCell id="676" value="X" style="rounded=0;whiteSpace=wrap;html=1;fontStyle=0;fontSize=12;fillColor=none;strokeColor=none;" parent="1" vertex="1">
                    <mxGeometry x="350" y="380" width="20" height="20" as="geometry"/>
                </mxCell>
                <mxCell id="678" value="X" style="rounded=0;whiteSpace=wrap;html=1;fontStyle=0;fontSize=12;fillColor=none;strokeColor=none;" parent="1" vertex="1">
                    <mxGeometry x="370" y="340" width="20" height="20" as="geometry"/>
                </mxCell>
                <mxCell id="680" value="•" style="rounded=0;whiteSpace=wrap;html=1;fontStyle=0;fontSize=12;fillColor=none;strokeColor=none;fontColor=#0000FF;" parent="1" vertex="1">
                    <mxGeometry x="370" y="380" width="20" height="20" as="geometry"/>
                </mxCell>
                <mxCell id="682" value="" style="rounded=0;whiteSpace=wrap;html=1;fontStyle=0;fontSize=12;fillColor=none;strokeColor=none;" parent="1" vertex="1">
                    <mxGeometry x="390" y="340" width="20" height="20" as="geometry"/>
                </mxCell>
                <mxCell id="684" value="" style="rounded=0;whiteSpace=wrap;html=1;fontStyle=0;fontSize=12;fillColor=none;strokeColor=none;" parent="1" vertex="1">
                    <mxGeometry x="390" y="380" width="20" height="20" as="geometry"/>
                </mxCell>
                <mxCell id="685" value="•" style="rounded=0;whiteSpace=wrap;html=1;fontStyle=0;fontSize=12;fillColor=none;strokeColor=none;fontColor=#0000FF;" parent="1" vertex="1">
                    <mxGeometry x="390" y="400" width="20" height="20" as="geometry"/>
                </mxCell>
                <mxCell id="686" value="" style="rounded=0;whiteSpace=wrap;html=1;fontStyle=0;fontSize=12;fillColor=none;strokeColor=none;" parent="1" vertex="1">
                    <mxGeometry x="190" y="260" width="20" height="20" as="geometry"/>
                </mxCell>
                <mxCell id="687" value="X" style="rounded=0;whiteSpace=wrap;html=1;fontStyle=0;fontSize=12;fillColor=none;strokeColor=none;" parent="1" vertex="1">
                    <mxGeometry x="190" y="240" width="20" height="20" as="geometry"/>
                </mxCell>
                <mxCell id="688" value="X" style="rounded=0;whiteSpace=wrap;html=1;fontStyle=0;fontSize=12;fillColor=none;strokeColor=none;" parent="1" vertex="1">
                    <mxGeometry x="210" y="260" width="20" height="20" as="geometry"/>
                </mxCell>
                <mxCell id="689" value="" style="rounded=0;whiteSpace=wrap;html=1;fontStyle=0;fontSize=12;fillColor=none;strokeColor=none;" parent="1" vertex="1">
                    <mxGeometry x="210" y="240" width="20" height="20" as="geometry"/>
                </mxCell>
                <mxCell id="690" value="" style="rounded=0;whiteSpace=wrap;html=1;fontStyle=0;fontSize=12;fillColor=none;strokeColor=none;" parent="1" vertex="1">
                    <mxGeometry x="170" y="220" width="20" height="20" as="geometry"/>
                </mxCell>
                <mxCell id="691" value="X" style="rounded=0;whiteSpace=wrap;html=1;fontStyle=0;fontSize=12;fillColor=none;strokeColor=none;" parent="1" vertex="1">
                    <mxGeometry x="170" y="200" width="20" height="20" as="geometry"/>
                </mxCell>
                <mxCell id="692" value="" style="rounded=0;whiteSpace=wrap;html=1;fontStyle=0;fontSize=12;fillColor=none;strokeColor=none;" parent="1" vertex="1">
                    <mxGeometry x="330" y="260" width="20" height="20" as="geometry"/>
                </mxCell>
                <mxCell id="694" value="" style="rounded=0;whiteSpace=wrap;html=1;fontStyle=0;fontSize=12;fillColor=none;strokeColor=none;" parent="1" vertex="1">
                    <mxGeometry x="350" y="280" width="20" height="20" as="geometry"/>
                </mxCell>
                <mxCell id="695" value="" style="rounded=0;whiteSpace=wrap;html=1;fontStyle=0;fontSize=12;fillColor=none;strokeColor=none;" parent="1" vertex="1">
                    <mxGeometry x="350" y="300" width="20" height="20" as="geometry"/>
                </mxCell>
                <mxCell id="698" value="" style="rounded=0;whiteSpace=wrap;html=1;fontStyle=0;fontSize=12;fillColor=none;strokeColor=none;" parent="1" vertex="1">
                    <mxGeometry x="390" y="320" width="20" height="20" as="geometry"/>
                </mxCell>
                <mxCell id="699" value="" style="endArrow=none;html=1;fontSize=12;fontColor=#0000FF;exitX=1;exitY=1;exitDx=0;exitDy=0;entryX=0;entryY=0;entryDx=0;entryDy=0;" parent="1" source="610" target="546" edge="1">
                    <mxGeometry width="50" height="50" relative="1" as="geometry">
                        <mxPoint x="230" y="330" as="sourcePoint"/>
                        <mxPoint x="280" y="280" as="targetPoint"/>
                    </mxGeometry>
                </mxCell>
                <mxCell id="700" value="" style="endArrow=none;html=1;fontSize=12;fontColor=#0000FF;exitX=1;exitY=1;exitDx=0;exitDy=0;entryX=0;entryY=0;entryDx=0;entryDy=0;" parent="1" source="614" target="538" edge="1">
                    <mxGeometry width="50" height="50" relative="1" as="geometry">
                        <mxPoint x="180" y="430" as="sourcePoint"/>
                        <mxPoint x="180" y="170" as="targetPoint"/>
                    </mxGeometry>
                </mxCell>
                <mxCell id="707" value="X" style="rounded=0;whiteSpace=wrap;html=1;fontStyle=0;fontSize=12;fillColor=none;strokeColor=none;" parent="1" vertex="1">
                    <mxGeometry x="190" y="220" width="20" height="20" as="geometry"/>
                </mxCell>
                <mxCell id="708" value="X" style="rounded=0;whiteSpace=wrap;html=1;fontStyle=0;fontSize=12;fillColor=none;strokeColor=none;" parent="1" vertex="1">
                    <mxGeometry x="190" y="280" width="20" height="20" as="geometry"/>
                </mxCell>
                <mxCell id="709" value="" style="rounded=0;whiteSpace=wrap;html=1;fontStyle=0;fontSize=12;fillColor=none;strokeColor=none;" parent="1" vertex="1">
                    <mxGeometry x="190" y="300" width="20" height="20" as="geometry"/>
                </mxCell>
                <mxCell id="710" value="" style="rounded=0;whiteSpace=wrap;html=1;fontStyle=0;fontSize=12;fillColor=none;strokeColor=none;" parent="1" vertex="1">
                    <mxGeometry x="230" y="300" width="20" height="20" as="geometry"/>
                </mxCell>
                <mxCell id="711" value="" style="rounded=0;whiteSpace=wrap;html=1;fontStyle=0;fontSize=12;fillColor=none;strokeColor=none;" parent="1" vertex="1">
                    <mxGeometry x="230" y="320" width="20" height="20" as="geometry"/>
                </mxCell>
                <mxCell id="712" value="X" style="rounded=0;whiteSpace=wrap;html=1;fontStyle=0;fontSize=12;fillColor=none;strokeColor=none;" parent="1" vertex="1">
                    <mxGeometry x="250" y="280" width="20" height="20" as="geometry"/>
                </mxCell>
                <mxCell id="714" value="" style="rounded=0;whiteSpace=wrap;html=1;fontStyle=0;fontSize=12;fillColor=none;strokeColor=none;" parent="1" vertex="1">
                    <mxGeometry x="270" y="300" width="20" height="20" as="geometry"/>
                </mxCell>
                <mxCell id="715" value="" style="rounded=0;whiteSpace=wrap;html=1;fontStyle=0;fontSize=12;fillColor=none;strokeColor=none;" parent="1" vertex="1">
                    <mxGeometry x="250" y="340" width="20" height="20" as="geometry"/>
                </mxCell>
                <mxCell id="716" value="" style="rounded=0;whiteSpace=wrap;html=1;fontStyle=0;fontSize=12;fillColor=none;strokeColor=none;" parent="1" vertex="1">
                    <mxGeometry x="270" y="340" width="20" height="20" as="geometry"/>
                </mxCell>
                <mxCell id="717" value="" style="rounded=0;whiteSpace=wrap;html=1;fontStyle=0;fontSize=12;fillColor=none;strokeColor=none;" parent="1" vertex="1">
                    <mxGeometry x="210" y="340" width="20" height="20" as="geometry"/>
                </mxCell>
                <mxCell id="718" value="" style="rounded=0;whiteSpace=wrap;html=1;fontStyle=0;fontSize=12;fillColor=none;strokeColor=none;" parent="1" vertex="1">
                    <mxGeometry x="190" y="360" width="20" height="20" as="geometry"/>
                </mxCell>
                <mxCell id="719" value="" style="rounded=0;whiteSpace=wrap;html=1;fontStyle=0;fontSize=12;fillColor=none;strokeColor=none;" parent="1" vertex="1">
                    <mxGeometry x="210" y="360" width="20" height="20" as="geometry"/>
                </mxCell>
                <mxCell id="720" value="" style="rounded=0;whiteSpace=wrap;html=1;fontStyle=0;fontSize=12;fillColor=none;strokeColor=none;" parent="1" vertex="1">
                    <mxGeometry x="190" y="380" width="20" height="20" as="geometry"/>
                </mxCell>
                <mxCell id="721" value="" style="rounded=0;whiteSpace=wrap;html=1;fontStyle=0;fontSize=12;fillColor=none;strokeColor=none;" parent="1" vertex="1">
                    <mxGeometry x="210" y="380" width="20" height="20" as="geometry"/>
                </mxCell>
                <mxCell id="722" value="" style="rounded=0;whiteSpace=wrap;html=1;fontStyle=0;fontSize=12;fillColor=none;strokeColor=none;" parent="1" vertex="1">
                    <mxGeometry x="170" y="400" width="20" height="20" as="geometry"/>
                </mxCell>
                <mxCell id="723" value="" style="rounded=0;whiteSpace=wrap;html=1;fontStyle=0;fontSize=12;fillColor=none;strokeColor=none;" parent="1" vertex="1">
                    <mxGeometry x="330" y="400" width="20" height="20" as="geometry"/>
                </mxCell>
                <mxCell id="724" value="" style="rounded=0;whiteSpace=wrap;html=1;fontStyle=0;fontSize=12;fillColor=none;strokeColor=none;" parent="1" vertex="1">
                    <mxGeometry x="350" y="400" width="20" height="20" as="geometry"/>
                </mxCell>
                <mxCell id="725" value="" style="rounded=0;whiteSpace=wrap;html=1;fontStyle=0;fontSize=12;fillColor=none;strokeColor=none;" parent="1" vertex="1">
                    <mxGeometry x="370" y="400" width="20" height="20" as="geometry"/>
                </mxCell>
                <mxCell id="726" value="" style="rounded=0;whiteSpace=wrap;html=1;fontStyle=0;fontSize=12;fillColor=none;strokeColor=none;" parent="1" vertex="1">
                    <mxGeometry x="370" y="360" width="20" height="20" as="geometry"/>
                </mxCell>
                <mxCell id="727" value="" style="rounded=0;whiteSpace=wrap;html=1;fontStyle=0;fontSize=12;fillColor=none;strokeColor=none;" parent="1" vertex="1">
                    <mxGeometry x="390" y="360" width="20" height="20" as="geometry"/>
                </mxCell>
                <mxCell id="728" value="" style="rounded=0;whiteSpace=wrap;html=1;fontStyle=0;fontSize=12;fillColor=none;strokeColor=none;" parent="1" vertex="1">
                    <mxGeometry x="370" y="300" width="20" height="20" as="geometry"/>
                </mxCell>
                <mxCell id="729" value="" style="rounded=0;whiteSpace=wrap;html=1;fontStyle=0;fontSize=12;fillColor=none;strokeColor=none;" parent="1" vertex="1">
                    <mxGeometry x="370" y="320" width="20" height="20" as="geometry"/>
                </mxCell>
                <mxCell id="730" value="" style="rounded=0;whiteSpace=wrap;html=1;fontStyle=0;fontSize=12;fillColor=none;strokeColor=none;" parent="1" vertex="1">
                    <mxGeometry x="390" y="240" width="20" height="20" as="geometry"/>
                </mxCell>
                <mxCell id="731" value="" style="rounded=0;whiteSpace=wrap;html=1;fontStyle=0;fontSize=12;fillColor=none;strokeColor=none;" parent="1" vertex="1">
                    <mxGeometry x="390" y="280" width="20" height="20" as="geometry"/>
                </mxCell>
                <mxCell id="732" value="" style="rounded=0;whiteSpace=wrap;html=1;fontStyle=0;fontSize=12;fillColor=none;strokeColor=none;" parent="1" vertex="1">
                    <mxGeometry x="270" y="240" width="20" height="20" as="geometry"/>
                </mxCell>
                <mxCell id="733" value="X" style="rounded=0;whiteSpace=wrap;html=1;fontStyle=0;fontSize=12;fillColor=none;strokeColor=none;" parent="1" vertex="1">
                    <mxGeometry x="270" y="260" width="20" height="20" as="geometry"/>
                </mxCell>
                <mxCell id="734" value="" style="rounded=0;whiteSpace=wrap;html=1;fontStyle=0;fontSize=12;fillColor=none;strokeColor=none;" parent="1" vertex="1">
                    <mxGeometry x="250" y="240" width="20" height="20" as="geometry"/>
                </mxCell>
                <mxCell id="735" value="X" style="rounded=0;whiteSpace=wrap;html=1;fontStyle=0;fontSize=12;fillColor=none;strokeColor=none;" parent="1" vertex="1">
                    <mxGeometry x="290" y="320" width="20" height="20" as="geometry"/>
                </mxCell>
                <mxCell id="736" value="X" style="rounded=0;whiteSpace=wrap;html=1;fontStyle=0;fontSize=12;fillColor=none;strokeColor=none;" parent="1" vertex="1">
                    <mxGeometry x="310" y="260" width="20" height="20" as="geometry"/>
                </mxCell>
                <mxCell id="738" value="" style="rounded=0;whiteSpace=wrap;html=1;strokeColor=#82b366;fontSize=12;fillColor=none;" parent="1" vertex="1">
                    <mxGeometry x="210" y="220" width="40" height="40" as="geometry"/>
                </mxCell>
                <mxCell id="740" value="" style="rounded=0;whiteSpace=wrap;html=1;strokeColor=#d79b00;fontSize=12;fillColor=none;" parent="1" vertex="1">
                    <mxGeometry x="250" y="260" width="80" height="80" as="geometry"/>
                </mxCell>
                <mxCell id="741" value="" style="rounded=0;whiteSpace=wrap;html=1;strokeColor=#d79b00;fontSize=12;fillColor=none;" parent="1" vertex="1">
                    <mxGeometry x="330" y="340" width="60" height="60" as="geometry"/>
                </mxCell>
                <mxCell id="742" value="Sequential" style="rounded=0;whiteSpace=wrap;html=1;fontStyle=0;fontSize=12;fillColor=none;strokeColor=none;fontColor=#6C8EBF;align=left;" parent="1" vertex="1">
                    <mxGeometry x="190" y="190" width="80" height="20" as="geometry"/>
                </mxCell>
                <mxCell id="743" value="Parallel" style="rounded=0;whiteSpace=wrap;html=1;fontStyle=0;fontSize=12;fillColor=none;strokeColor=none;fontColor=#82B366;align=left;" parent="1" vertex="1">
                    <mxGeometry x="250" y="220" width="80" height="20" as="geometry"/>
                </mxCell>
                <mxCell id="744" value="Coupled" style="rounded=0;whiteSpace=wrap;html=1;fontStyle=0;fontSize=12;fillColor=none;strokeColor=none;fontColor=#D79B00;align=left;" parent="1" vertex="1">
                    <mxGeometry x="330" y="260" width="80" height="20" as="geometry"/>
                </mxCell>
                <mxCell id="745" value="Task&lt;br&gt;Sequence" style="endArrow=block;html=1;fontSize=12;fontColor=#000000;startSize=3;endSize=3;endFill=1;strokeColor=#000000;" parent="1" edge="1">
                    <mxGeometry width="50" height="50" relative="1" as="geometry">
                        <mxPoint x="120" y="160" as="sourcePoint"/>
                        <mxPoint x="120" y="422.2857142857143" as="targetPoint"/>
                    </mxGeometry>
                </mxCell>
                <mxCell id="746" value="" style="endArrow=block;html=1;strokeColor=#000000;fontSize=12;fontColor=#000000;startSize=3;endSize=3;endFill=1;" parent="1" edge="1">
                    <mxGeometry width="50" height="50" relative="1" as="geometry">
                        <mxPoint x="420" y="290" as="sourcePoint"/>
                        <mxPoint x="460" y="290" as="targetPoint"/>
                    </mxGeometry>
                </mxCell>
                <mxCell id="747" value="" style="endArrow=none;html=1;fontSize=12;fontColor=#0000FF;fillColor=#dae8fc;strokeColor=#6c8ebf;exitX=0;exitY=0;exitDx=0;exitDy=0;" edge="1" parent="1" source="910">
                    <mxGeometry width="50" height="50" relative="1" as="geometry">
                        <mxPoint x="470" y="150" as="sourcePoint"/>
                        <mxPoint x="490.0000000000001" y="180" as="targetPoint"/>
                    </mxGeometry>
                </mxCell>
                <mxCell id="748" value="B" style="rounded=0;whiteSpace=wrap;html=1;fontStyle=0;fontSize=12;fillColor=none;strokeColor=none;" vertex="1" parent="1">
                    <mxGeometry x="470" y="180" width="20" height="20" as="geometry"/>
                </mxCell>
                <mxCell id="749" value="C" style="rounded=0;whiteSpace=wrap;html=1;fontStyle=0;fontSize=12;fillColor=none;strokeColor=none;" vertex="1" parent="1">
                    <mxGeometry x="470" y="200" width="20" height="20" as="geometry"/>
                </mxCell>
                <mxCell id="750" value="A" style="rounded=0;whiteSpace=wrap;html=1;fontStyle=0;fontSize=12;fillColor=none;strokeColor=none;" vertex="1" parent="1">
                    <mxGeometry x="470" y="220" width="20" height="20" as="geometry"/>
                </mxCell>
                <mxCell id="751" value="K" style="rounded=0;whiteSpace=wrap;html=1;fontStyle=0;fontSize=12;fillColor=none;strokeColor=none;" vertex="1" parent="1">
                    <mxGeometry x="470" y="240" width="20" height="20" as="geometry"/>
                </mxCell>
                <mxCell id="752" value="L" style="rounded=0;whiteSpace=wrap;html=1;fontStyle=0;fontSize=12;fillColor=none;strokeColor=none;" vertex="1" parent="1">
                    <mxGeometry x="470" y="260" width="20" height="20" as="geometry"/>
                </mxCell>
                <mxCell id="753" value="J" style="rounded=0;whiteSpace=wrap;html=1;fontStyle=0;fontSize=12;fillColor=none;strokeColor=none;" vertex="1" parent="1">
                    <mxGeometry x="470" y="280" width="20" height="20" as="geometry"/>
                </mxCell>
                <mxCell id="754" value="F" style="rounded=0;whiteSpace=wrap;html=1;fontStyle=0;fontSize=12;fillColor=none;strokeColor=none;" vertex="1" parent="1">
                    <mxGeometry x="470" y="300" width="20" height="20" as="geometry"/>
                </mxCell>
                <mxCell id="755" value="I" style="rounded=0;whiteSpace=wrap;html=1;fontStyle=0;fontSize=12;fillColor=none;strokeColor=none;" vertex="1" parent="1">
                    <mxGeometry x="470" y="320" width="20" height="20" as="geometry"/>
                </mxCell>
                <mxCell id="756" value="B" style="rounded=0;whiteSpace=wrap;html=1;fontStyle=0;fontSize=12;fillColor=none;strokeColor=none;" vertex="1" parent="1">
                    <mxGeometry x="490" y="160" width="20" height="20" as="geometry"/>
                </mxCell>
                <mxCell id="757" value="C" style="rounded=0;whiteSpace=wrap;html=1;fontStyle=0;fontSize=12;fillColor=none;strokeColor=none;" vertex="1" parent="1">
                    <mxGeometry x="510" y="160" width="20" height="20" as="geometry"/>
                </mxCell>
                <mxCell id="758" value="A" style="rounded=0;whiteSpace=wrap;html=1;fontStyle=0;fontSize=12;fillColor=none;strokeColor=none;" vertex="1" parent="1">
                    <mxGeometry x="530" y="160" width="20" height="20" as="geometry"/>
                </mxCell>
                <mxCell id="759" value="K" style="rounded=0;whiteSpace=wrap;html=1;fontStyle=0;fontSize=12;fillColor=none;strokeColor=none;" vertex="1" parent="1">
                    <mxGeometry x="550" y="160" width="20" height="20" as="geometry"/>
                </mxCell>
                <mxCell id="760" value="L" style="rounded=0;whiteSpace=wrap;html=1;fontStyle=0;fontSize=12;fillColor=none;strokeColor=none;" vertex="1" parent="1">
                    <mxGeometry x="570" y="160" width="20" height="20" as="geometry"/>
                </mxCell>
                <mxCell id="761" value="J" style="rounded=0;whiteSpace=wrap;html=1;fontStyle=0;fontSize=12;fillColor=none;strokeColor=none;" vertex="1" parent="1">
                    <mxGeometry x="590" y="160" width="20" height="20" as="geometry"/>
                </mxCell>
                <mxCell id="762" value="F" style="rounded=0;whiteSpace=wrap;html=1;fontStyle=0;fontSize=12;fillColor=none;strokeColor=none;" vertex="1" parent="1">
                    <mxGeometry x="610" y="160" width="20" height="20" as="geometry"/>
                </mxCell>
                <mxCell id="763" value="I" style="rounded=0;whiteSpace=wrap;html=1;fontStyle=0;fontSize=12;fillColor=none;strokeColor=none;" vertex="1" parent="1">
                    <mxGeometry x="630" y="160" width="20" height="20" as="geometry"/>
                </mxCell>
                <mxCell id="764" value="•" style="rounded=0;whiteSpace=wrap;html=1;fontStyle=0;fontSize=12;fillColor=none;strokeColor=none;fontColor=#0000FF;" vertex="1" parent="1">
                    <mxGeometry x="490" y="180" width="20" height="20" as="geometry"/>
                </mxCell>
                <mxCell id="765" value="X" style="rounded=0;whiteSpace=wrap;html=1;fontStyle=0;fontSize=12;fillColor=none;strokeColor=none;" vertex="1" parent="1">
                    <mxGeometry x="490" y="240" width="20" height="20" as="geometry"/>
                </mxCell>
                <mxCell id="766" value="" style="rounded=0;whiteSpace=wrap;html=1;fontStyle=0;fontSize=12;fillColor=none;strokeColor=none;" vertex="1" parent="1">
                    <mxGeometry x="490" y="260" width="20" height="20" as="geometry"/>
                </mxCell>
                <mxCell id="767" value="X" style="rounded=0;whiteSpace=wrap;html=1;fontStyle=0;fontSize=12;fillColor=none;strokeColor=none;" vertex="1" parent="1">
                    <mxGeometry x="490" y="280" width="20" height="20" as="geometry"/>
                </mxCell>
                <mxCell id="768" value="X" style="rounded=0;whiteSpace=wrap;html=1;fontStyle=0;fontSize=12;fillColor=none;strokeColor=none;" vertex="1" parent="1">
                    <mxGeometry x="490" y="300" width="20" height="20" as="geometry"/>
                </mxCell>
                <mxCell id="769" value="" style="rounded=0;whiteSpace=wrap;html=1;fontStyle=0;fontSize=12;fillColor=none;strokeColor=none;" vertex="1" parent="1">
                    <mxGeometry x="510" y="180" width="20" height="20" as="geometry"/>
                </mxCell>
                <mxCell id="770" value="•" style="rounded=0;whiteSpace=wrap;html=1;fontStyle=0;fontSize=12;fillColor=none;strokeColor=none;fontColor=#0000FF;" vertex="1" parent="1">
                    <mxGeometry x="510" y="200" width="20" height="20" as="geometry"/>
                </mxCell>
                <mxCell id="771" value="X" style="rounded=0;whiteSpace=wrap;html=1;fontStyle=0;fontSize=12;fillColor=none;strokeColor=none;" vertex="1" parent="1">
                    <mxGeometry x="510" y="320" width="20" height="20" as="geometry"/>
                </mxCell>
                <mxCell id="772" value="" style="rounded=0;whiteSpace=wrap;html=1;fontStyle=0;fontSize=12;fillColor=none;strokeColor=none;" vertex="1" parent="1">
                    <mxGeometry x="530" y="200" width="20" height="20" as="geometry"/>
                </mxCell>
                <mxCell id="773" value="•" style="rounded=0;whiteSpace=wrap;html=1;fontStyle=0;fontSize=12;fillColor=none;strokeColor=none;fontColor=#0000FF;" vertex="1" parent="1">
                    <mxGeometry x="530" y="220" width="20" height="20" as="geometry"/>
                </mxCell>
                <mxCell id="774" value="" style="rounded=0;whiteSpace=wrap;html=1;fontStyle=0;fontSize=12;fillColor=none;strokeColor=none;" vertex="1" parent="1">
                    <mxGeometry x="530" y="280" width="20" height="20" as="geometry"/>
                </mxCell>
                <mxCell id="775" value="" style="rounded=0;whiteSpace=wrap;html=1;fontStyle=0;fontSize=12;fillColor=none;strokeColor=none;" vertex="1" parent="1">
                    <mxGeometry x="530" y="300" width="20" height="20" as="geometry"/>
                </mxCell>
                <mxCell id="776" value="" style="rounded=0;whiteSpace=wrap;html=1;fontStyle=0;fontSize=12;fillColor=none;strokeColor=none;" vertex="1" parent="1">
                    <mxGeometry x="530" y="320" width="20" height="20" as="geometry"/>
                </mxCell>
                <mxCell id="777" value="" style="rounded=0;whiteSpace=wrap;html=1;fontStyle=0;fontSize=12;fillColor=none;strokeColor=none;" vertex="1" parent="1">
                    <mxGeometry x="550" y="180" width="20" height="20" as="geometry"/>
                </mxCell>
                <mxCell id="778" value="" style="rounded=0;whiteSpace=wrap;html=1;fontStyle=0;fontSize=12;fillColor=none;strokeColor=none;" vertex="1" parent="1">
                    <mxGeometry x="550" y="200" width="20" height="20" as="geometry"/>
                </mxCell>
                <mxCell id="779" value="" style="rounded=0;whiteSpace=wrap;html=1;fontStyle=0;fontSize=12;fillColor=none;strokeColor=none;" vertex="1" parent="1">
                    <mxGeometry x="550" y="220" width="20" height="20" as="geometry"/>
                </mxCell>
                <mxCell id="780" value="•" style="rounded=0;whiteSpace=wrap;html=1;fontStyle=0;fontSize=12;fillColor=none;strokeColor=none;fontColor=#0000FF;" vertex="1" parent="1">
                    <mxGeometry x="550" y="240" width="20" height="20" as="geometry"/>
                </mxCell>
                <mxCell id="781" value="X" style="rounded=0;whiteSpace=wrap;html=1;fontStyle=0;fontSize=12;fillColor=none;strokeColor=none;" vertex="1" parent="1">
                    <mxGeometry x="550" y="260" width="20" height="20" as="geometry"/>
                </mxCell>
                <mxCell id="782" value="X" style="rounded=0;whiteSpace=wrap;html=1;fontStyle=0;fontSize=12;fillColor=none;strokeColor=none;" vertex="1" parent="1">
                    <mxGeometry x="550" y="280" width="20" height="20" as="geometry"/>
                </mxCell>
                <mxCell id="783" value="" style="rounded=0;whiteSpace=wrap;html=1;fontStyle=0;fontSize=12;fillColor=none;strokeColor=none;" vertex="1" parent="1">
                    <mxGeometry x="570" y="180" width="20" height="20" as="geometry"/>
                </mxCell>
                <mxCell id="784" value="" style="rounded=0;whiteSpace=wrap;html=1;fontStyle=0;fontSize=12;fillColor=none;strokeColor=none;" vertex="1" parent="1">
                    <mxGeometry x="570" y="200" width="20" height="20" as="geometry"/>
                </mxCell>
                <mxCell id="785" value="" style="rounded=0;whiteSpace=wrap;html=1;fontStyle=0;fontSize=12;fillColor=none;strokeColor=none;" vertex="1" parent="1">
                    <mxGeometry x="570" y="220" width="20" height="20" as="geometry"/>
                </mxCell>
                <mxCell id="786" value="•" style="rounded=0;whiteSpace=wrap;html=1;fontStyle=0;fontSize=12;fillColor=none;strokeColor=none;fontColor=#0000FF;" vertex="1" parent="1">
                    <mxGeometry x="570" y="260" width="20" height="20" as="geometry"/>
                </mxCell>
                <mxCell id="787" value="X" style="rounded=0;whiteSpace=wrap;html=1;fontStyle=0;fontSize=12;fillColor=none;strokeColor=none;" vertex="1" parent="1">
                    <mxGeometry x="570" y="300" width="20" height="20" as="geometry"/>
                </mxCell>
                <mxCell id="788" value="" style="rounded=0;whiteSpace=wrap;html=1;fontStyle=0;fontSize=12;fillColor=none;strokeColor=none;" vertex="1" parent="1">
                    <mxGeometry x="570" y="320" width="20" height="20" as="geometry"/>
                </mxCell>
                <mxCell id="789" value="" style="rounded=0;whiteSpace=wrap;html=1;fontStyle=0;fontSize=12;fillColor=none;strokeColor=none;" vertex="1" parent="1">
                    <mxGeometry x="590" y="180" width="20" height="20" as="geometry"/>
                </mxCell>
                <mxCell id="790" value="" style="rounded=0;whiteSpace=wrap;html=1;fontStyle=0;fontSize=12;fillColor=none;strokeColor=none;" vertex="1" parent="1">
                    <mxGeometry x="590" y="200" width="20" height="20" as="geometry"/>
                </mxCell>
                <mxCell id="791" value="" style="rounded=0;whiteSpace=wrap;html=1;fontStyle=0;fontSize=12;fillColor=none;strokeColor=none;" vertex="1" parent="1">
                    <mxGeometry x="590" y="220" width="20" height="20" as="geometry"/>
                </mxCell>
                <mxCell id="792" value="•" style="rounded=0;whiteSpace=wrap;html=1;fontStyle=0;fontSize=12;fillColor=none;strokeColor=none;fontColor=#0000FF;" vertex="1" parent="1">
                    <mxGeometry x="590" y="280" width="20" height="20" as="geometry"/>
                </mxCell>
                <mxCell id="793" value="X" style="rounded=0;whiteSpace=wrap;html=1;fontStyle=0;fontSize=12;fillColor=none;strokeColor=none;" vertex="1" parent="1">
                    <mxGeometry x="590" y="320" width="20" height="20" as="geometry"/>
                </mxCell>
                <mxCell id="794" value="" style="rounded=0;whiteSpace=wrap;html=1;fontStyle=0;fontSize=12;fillColor=none;strokeColor=none;" vertex="1" parent="1">
                    <mxGeometry x="610" y="180" width="20" height="20" as="geometry"/>
                </mxCell>
                <mxCell id="795" value="" style="rounded=0;whiteSpace=wrap;html=1;fontStyle=0;fontSize=12;fillColor=none;strokeColor=none;" vertex="1" parent="1">
                    <mxGeometry x="610" y="200" width="20" height="20" as="geometry"/>
                </mxCell>
                <mxCell id="796" value="" style="rounded=0;whiteSpace=wrap;html=1;fontStyle=0;fontSize=12;fillColor=none;strokeColor=none;" vertex="1" parent="1">
                    <mxGeometry x="610" y="240" width="20" height="20" as="geometry"/>
                </mxCell>
                <mxCell id="797" value="" style="rounded=0;whiteSpace=wrap;html=1;fontStyle=0;fontSize=12;fillColor=none;strokeColor=none;" vertex="1" parent="1">
                    <mxGeometry x="610" y="260" width="20" height="20" as="geometry"/>
                </mxCell>
                <mxCell id="798" value="" style="rounded=0;whiteSpace=wrap;html=1;fontStyle=0;fontSize=12;fillColor=none;strokeColor=none;" vertex="1" parent="1">
                    <mxGeometry x="610" y="280" width="20" height="20" as="geometry"/>
                </mxCell>
                <mxCell id="799" value="•" style="rounded=0;whiteSpace=wrap;html=1;fontStyle=0;fontSize=12;fillColor=none;strokeColor=none;fontColor=#0000FF;" vertex="1" parent="1">
                    <mxGeometry x="610" y="300" width="20" height="20" as="geometry"/>
                </mxCell>
                <mxCell id="800" value="" style="rounded=0;whiteSpace=wrap;html=1;fontStyle=0;fontSize=12;fillColor=none;strokeColor=none;" vertex="1" parent="1">
                    <mxGeometry x="630" y="180" width="20" height="20" as="geometry"/>
                </mxCell>
                <mxCell id="801" value="" style="rounded=0;whiteSpace=wrap;html=1;fontStyle=0;fontSize=12;fillColor=none;strokeColor=none;" vertex="1" parent="1">
                    <mxGeometry x="630" y="200" width="20" height="20" as="geometry"/>
                </mxCell>
                <mxCell id="802" value="" style="rounded=0;whiteSpace=wrap;html=1;fontStyle=0;fontSize=12;fillColor=none;strokeColor=none;" vertex="1" parent="1">
                    <mxGeometry x="630" y="220" width="20" height="20" as="geometry"/>
                </mxCell>
                <mxCell id="803" value="" style="rounded=0;whiteSpace=wrap;html=1;fontStyle=0;fontSize=12;fillColor=none;strokeColor=none;" vertex="1" parent="1">
                    <mxGeometry x="630" y="240" width="20" height="20" as="geometry"/>
                </mxCell>
                <mxCell id="804" value="" style="rounded=0;whiteSpace=wrap;html=1;fontStyle=0;fontSize=12;fillColor=none;strokeColor=none;" vertex="1" parent="1">
                    <mxGeometry x="630" y="280" width="20" height="20" as="geometry"/>
                </mxCell>
                <mxCell id="805" value="X" style="rounded=0;whiteSpace=wrap;html=1;fontStyle=0;fontSize=12;fillColor=none;strokeColor=none;" vertex="1" parent="1">
                    <mxGeometry x="630" y="300" width="20" height="20" as="geometry"/>
                </mxCell>
                <mxCell id="806" value="•" style="rounded=0;whiteSpace=wrap;html=1;fontStyle=0;fontSize=12;fillColor=none;strokeColor=none;fontColor=#0000FF;" vertex="1" parent="1">
                    <mxGeometry x="630" y="320" width="20" height="20" as="geometry"/>
                </mxCell>
                <mxCell id="807" value="E" style="rounded=0;whiteSpace=wrap;html=1;fontStyle=0;fontSize=12;fillColor=none;strokeColor=none;" vertex="1" parent="1">
                    <mxGeometry x="470" y="340" width="20" height="20" as="geometry"/>
                </mxCell>
                <mxCell id="808" value="D" style="rounded=0;whiteSpace=wrap;html=1;fontStyle=0;fontSize=12;fillColor=none;strokeColor=none;" vertex="1" parent="1">
                    <mxGeometry x="470" y="360" width="20" height="20" as="geometry"/>
                </mxCell>
                <mxCell id="809" value="H" style="rounded=0;whiteSpace=wrap;html=1;fontStyle=0;fontSize=12;fillColor=none;strokeColor=none;" vertex="1" parent="1">
                    <mxGeometry x="470" y="380" width="20" height="20" as="geometry"/>
                </mxCell>
                <mxCell id="810" value="G" style="rounded=0;whiteSpace=wrap;html=1;fontStyle=0;fontSize=12;fillColor=none;strokeColor=none;" vertex="1" parent="1">
                    <mxGeometry x="470" y="400" width="20" height="20" as="geometry"/>
                </mxCell>
                <mxCell id="811" value="E" style="rounded=0;whiteSpace=wrap;html=1;fontStyle=0;fontSize=12;fillColor=none;strokeColor=none;" vertex="1" parent="1">
                    <mxGeometry x="650" y="160" width="20" height="20" as="geometry"/>
                </mxCell>
                <mxCell id="812" value="D" style="rounded=0;whiteSpace=wrap;html=1;fontStyle=0;fontSize=12;fillColor=none;strokeColor=none;" vertex="1" parent="1">
                    <mxGeometry x="670" y="160" width="20" height="20" as="geometry"/>
                </mxCell>
                <mxCell id="813" value="H" style="rounded=0;whiteSpace=wrap;html=1;fontStyle=0;fontSize=12;fillColor=none;strokeColor=none;" vertex="1" parent="1">
                    <mxGeometry x="690" y="160" width="20" height="20" as="geometry"/>
                </mxCell>
                <mxCell id="814" value="G" style="rounded=0;whiteSpace=wrap;html=1;fontStyle=0;fontSize=12;fillColor=none;strokeColor=none;" vertex="1" parent="1">
                    <mxGeometry x="710" y="160" width="20" height="20" as="geometry"/>
                </mxCell>
                <mxCell id="815" value="" style="rounded=0;whiteSpace=wrap;html=1;fontStyle=0;fontSize=12;fillColor=none;strokeColor=none;" vertex="1" parent="1">
                    <mxGeometry x="490" y="340" width="20" height="20" as="geometry"/>
                </mxCell>
                <mxCell id="816" value="" style="rounded=0;whiteSpace=wrap;html=1;fontStyle=0;fontSize=12;fillColor=none;strokeColor=none;" vertex="1" parent="1">
                    <mxGeometry x="490" y="360" width="20" height="20" as="geometry"/>
                </mxCell>
                <mxCell id="817" value="" style="rounded=0;whiteSpace=wrap;html=1;fontStyle=0;fontSize=12;fillColor=none;strokeColor=none;" vertex="1" parent="1">
                    <mxGeometry x="490" y="380" width="20" height="20" as="geometry"/>
                </mxCell>
                <mxCell id="818" value="" style="rounded=0;whiteSpace=wrap;html=1;fontStyle=0;fontSize=12;fillColor=none;strokeColor=none;" vertex="1" parent="1">
                    <mxGeometry x="510" y="340" width="20" height="20" as="geometry"/>
                </mxCell>
                <mxCell id="819" value="" style="rounded=0;whiteSpace=wrap;html=1;fontStyle=0;fontSize=12;fillColor=none;strokeColor=none;" vertex="1" parent="1">
                    <mxGeometry x="510" y="400" width="20" height="20" as="geometry"/>
                </mxCell>
                <mxCell id="820" value="" style="rounded=0;whiteSpace=wrap;html=1;fontStyle=0;fontSize=12;fillColor=none;strokeColor=none;" vertex="1" parent="1">
                    <mxGeometry x="530" y="400" width="20" height="20" as="geometry"/>
                </mxCell>
                <mxCell id="821" value="" style="rounded=0;whiteSpace=wrap;html=1;fontStyle=0;fontSize=12;fillColor=none;strokeColor=none;" vertex="1" parent="1">
                    <mxGeometry x="550" y="340" width="20" height="20" as="geometry"/>
                </mxCell>
                <mxCell id="822" value="" style="rounded=0;whiteSpace=wrap;html=1;fontStyle=0;fontSize=12;fillColor=none;strokeColor=none;" vertex="1" parent="1">
                    <mxGeometry x="550" y="360" width="20" height="20" as="geometry"/>
                </mxCell>
                <mxCell id="823" value="" style="rounded=0;whiteSpace=wrap;html=1;fontStyle=0;fontSize=12;fillColor=none;strokeColor=none;" vertex="1" parent="1">
                    <mxGeometry x="550" y="380" width="20" height="20" as="geometry"/>
                </mxCell>
                <mxCell id="824" value="" style="rounded=0;whiteSpace=wrap;html=1;fontStyle=0;fontSize=12;fillColor=none;strokeColor=none;" vertex="1" parent="1">
                    <mxGeometry x="550" y="400" width="20" height="20" as="geometry"/>
                </mxCell>
                <mxCell id="825" value="" style="rounded=0;whiteSpace=wrap;html=1;fontStyle=0;fontSize=12;fillColor=none;strokeColor=none;" vertex="1" parent="1">
                    <mxGeometry x="570" y="360" width="20" height="20" as="geometry"/>
                </mxCell>
                <mxCell id="826" value="" style="rounded=0;whiteSpace=wrap;html=1;fontStyle=0;fontSize=12;fillColor=none;strokeColor=none;" vertex="1" parent="1">
                    <mxGeometry x="570" y="380" width="20" height="20" as="geometry"/>
                </mxCell>
                <mxCell id="827" value="" style="rounded=0;whiteSpace=wrap;html=1;fontStyle=0;fontSize=12;fillColor=none;strokeColor=none;" vertex="1" parent="1">
                    <mxGeometry x="570" y="400" width="20" height="20" as="geometry"/>
                </mxCell>
                <mxCell id="828" value="" style="rounded=0;whiteSpace=wrap;html=1;fontStyle=0;fontSize=12;fillColor=none;strokeColor=none;" vertex="1" parent="1">
                    <mxGeometry x="590" y="360" width="20" height="20" as="geometry"/>
                </mxCell>
                <mxCell id="829" value="" style="rounded=0;whiteSpace=wrap;html=1;fontStyle=0;fontSize=12;fillColor=none;strokeColor=none;" vertex="1" parent="1">
                    <mxGeometry x="590" y="380" width="20" height="20" as="geometry"/>
                </mxCell>
                <mxCell id="830" value="" style="rounded=0;whiteSpace=wrap;html=1;fontStyle=0;fontSize=12;fillColor=none;strokeColor=none;" vertex="1" parent="1">
                    <mxGeometry x="590" y="400" width="20" height="20" as="geometry"/>
                </mxCell>
                <mxCell id="831" value="X" style="rounded=0;whiteSpace=wrap;html=1;fontStyle=0;fontSize=12;fillColor=none;strokeColor=none;" vertex="1" parent="1">
                    <mxGeometry x="610" y="340" width="20" height="20" as="geometry"/>
                </mxCell>
                <mxCell id="832" value="X" style="rounded=0;whiteSpace=wrap;html=1;fontStyle=0;fontSize=12;fillColor=none;strokeColor=none;" vertex="1" parent="1">
                    <mxGeometry x="610" y="360" width="20" height="20" as="geometry"/>
                </mxCell>
                <mxCell id="833" value="" style="rounded=0;whiteSpace=wrap;html=1;fontStyle=0;fontSize=12;fillColor=none;strokeColor=none;" vertex="1" parent="1">
                    <mxGeometry x="610" y="380" width="20" height="20" as="geometry"/>
                </mxCell>
                <mxCell id="834" value="" style="rounded=0;whiteSpace=wrap;html=1;fontStyle=0;fontSize=12;fillColor=none;strokeColor=none;" vertex="1" parent="1">
                    <mxGeometry x="610" y="400" width="20" height="20" as="geometry"/>
                </mxCell>
                <mxCell id="835" value="" style="rounded=0;whiteSpace=wrap;html=1;fontStyle=0;fontSize=12;fillColor=none;strokeColor=none;" vertex="1" parent="1">
                    <mxGeometry x="630" y="340" width="20" height="20" as="geometry"/>
                </mxCell>
                <mxCell id="836" value="" style="rounded=0;whiteSpace=wrap;html=1;fontStyle=0;fontSize=12;fillColor=none;strokeColor=none;" vertex="1" parent="1">
                    <mxGeometry x="630" y="360" width="20" height="20" as="geometry"/>
                </mxCell>
                <mxCell id="837" value="X" style="rounded=0;whiteSpace=wrap;html=1;fontStyle=0;fontSize=12;fillColor=none;strokeColor=none;" vertex="1" parent="1">
                    <mxGeometry x="630" y="380" width="20" height="20" as="geometry"/>
                </mxCell>
                <mxCell id="838" value="" style="rounded=0;whiteSpace=wrap;html=1;fontStyle=0;fontSize=12;fillColor=none;strokeColor=none;" vertex="1" parent="1">
                    <mxGeometry x="630" y="400" width="20" height="20" as="geometry"/>
                </mxCell>
                <mxCell id="839" value="" style="rounded=0;whiteSpace=wrap;html=1;fontStyle=0;fontSize=12;fillColor=none;strokeColor=none;" vertex="1" parent="1">
                    <mxGeometry x="650" y="180" width="20" height="20" as="geometry"/>
                </mxCell>
                <mxCell id="840" value="" style="rounded=0;whiteSpace=wrap;html=1;fontStyle=0;fontSize=12;fillColor=none;strokeColor=none;" vertex="1" parent="1">
                    <mxGeometry x="650" y="200" width="20" height="20" as="geometry"/>
                </mxCell>
                <mxCell id="841" value="" style="rounded=0;whiteSpace=wrap;html=1;fontStyle=0;fontSize=12;fillColor=none;strokeColor=none;" vertex="1" parent="1">
                    <mxGeometry x="650" y="220" width="20" height="20" as="geometry"/>
                </mxCell>
                <mxCell id="842" value="Tear" style="rounded=0;whiteSpace=wrap;html=1;fontStyle=0;fontSize=12;fillColor=none;strokeColor=none;fontColor=#9673A6;" vertex="1" parent="1">
                    <mxGeometry x="650" y="240" width="20" height="20" as="geometry"/>
                </mxCell>
                <mxCell id="843" value="" style="rounded=0;whiteSpace=wrap;html=1;fontStyle=0;fontSize=12;fillColor=none;strokeColor=none;" vertex="1" parent="1">
                    <mxGeometry x="650" y="300" width="20" height="20" as="geometry"/>
                </mxCell>
                <mxCell id="844" value="" style="rounded=0;whiteSpace=wrap;html=1;fontStyle=0;fontSize=12;fillColor=none;strokeColor=none;" vertex="1" parent="1">
                    <mxGeometry x="670" y="180" width="20" height="20" as="geometry"/>
                </mxCell>
                <mxCell id="845" value="" style="rounded=0;whiteSpace=wrap;html=1;fontStyle=0;fontSize=12;fillColor=none;strokeColor=none;" vertex="1" parent="1">
                    <mxGeometry x="670" y="200" width="20" height="20" as="geometry"/>
                </mxCell>
                <mxCell id="846" value="" style="rounded=0;whiteSpace=wrap;html=1;fontStyle=0;fontSize=12;fillColor=none;strokeColor=none;" vertex="1" parent="1">
                    <mxGeometry x="670" y="220" width="20" height="20" as="geometry"/>
                </mxCell>
                <mxCell id="847" value="" style="rounded=0;whiteSpace=wrap;html=1;fontStyle=0;fontSize=12;fillColor=none;strokeColor=none;" vertex="1" parent="1">
                    <mxGeometry x="670" y="240" width="20" height="20" as="geometry"/>
                </mxCell>
                <mxCell id="848" value="" style="rounded=0;whiteSpace=wrap;html=1;fontStyle=0;fontSize=12;fillColor=none;strokeColor=none;" vertex="1" parent="1">
                    <mxGeometry x="670" y="260" width="20" height="20" as="geometry"/>
                </mxCell>
                <mxCell id="849" value="" style="rounded=0;whiteSpace=wrap;html=1;fontStyle=0;fontSize=12;fillColor=none;strokeColor=none;" vertex="1" parent="1">
                    <mxGeometry x="670" y="320" width="20" height="20" as="geometry"/>
                </mxCell>
                <mxCell id="850" value="" style="rounded=0;whiteSpace=wrap;html=1;fontStyle=0;fontSize=12;fillColor=none;strokeColor=none;" vertex="1" parent="1">
                    <mxGeometry x="690" y="180" width="20" height="20" as="geometry"/>
                </mxCell>
                <mxCell id="851" value="" style="rounded=0;whiteSpace=wrap;html=1;fontStyle=0;fontSize=12;fillColor=none;strokeColor=none;" vertex="1" parent="1">
                    <mxGeometry x="690" y="200" width="20" height="20" as="geometry"/>
                </mxCell>
                <mxCell id="852" value="" style="rounded=0;whiteSpace=wrap;html=1;fontStyle=0;fontSize=12;fillColor=none;strokeColor=none;" vertex="1" parent="1">
                    <mxGeometry x="690" y="240" width="20" height="20" as="geometry"/>
                </mxCell>
                <mxCell id="853" value="" style="rounded=0;whiteSpace=wrap;html=1;fontStyle=0;fontSize=12;fillColor=none;strokeColor=none;" vertex="1" parent="1">
                    <mxGeometry x="690" y="280" width="20" height="20" as="geometry"/>
                </mxCell>
                <mxCell id="854" value="" style="rounded=0;whiteSpace=wrap;html=1;fontStyle=0;fontSize=12;fillColor=none;strokeColor=none;" vertex="1" parent="1">
                    <mxGeometry x="710" y="180" width="20" height="20" as="geometry"/>
                </mxCell>
                <mxCell id="855" value="" style="rounded=0;whiteSpace=wrap;html=1;fontStyle=0;fontSize=12;fillColor=none;strokeColor=none;" vertex="1" parent="1">
                    <mxGeometry x="710" y="200" width="20" height="20" as="geometry"/>
                </mxCell>
                <mxCell id="856" value="" style="rounded=0;whiteSpace=wrap;html=1;fontStyle=0;fontSize=12;fillColor=none;strokeColor=none;" vertex="1" parent="1">
                    <mxGeometry x="710" y="220" width="20" height="20" as="geometry"/>
                </mxCell>
                <mxCell id="857" value="" style="rounded=0;whiteSpace=wrap;html=1;fontStyle=0;fontSize=12;fillColor=none;strokeColor=none;" vertex="1" parent="1">
                    <mxGeometry x="710" y="260" width="20" height="20" as="geometry"/>
                </mxCell>
                <mxCell id="858" value="" style="rounded=0;whiteSpace=wrap;html=1;fontStyle=0;fontSize=12;fillColor=none;strokeColor=none;" vertex="1" parent="1">
                    <mxGeometry x="710" y="300" width="20" height="20" as="geometry"/>
                </mxCell>
                <mxCell id="859" value="•" style="rounded=0;whiteSpace=wrap;html=1;fontStyle=0;fontSize=12;fillColor=none;strokeColor=none;fontColor=#0000FF;" vertex="1" parent="1">
                    <mxGeometry x="650" y="340" width="20" height="20" as="geometry"/>
                </mxCell>
                <mxCell id="860" value="X" style="rounded=0;whiteSpace=wrap;html=1;fontStyle=0;fontSize=12;fillColor=none;strokeColor=none;" vertex="1" parent="1">
                    <mxGeometry x="650" y="360" width="20" height="20" as="geometry"/>
                </mxCell>
                <mxCell id="861" value="" style="rounded=0;whiteSpace=wrap;html=1;fontStyle=0;fontSize=12;fillColor=none;strokeColor=none;" vertex="1" parent="1">
                    <mxGeometry x="650" y="380" width="20" height="20" as="geometry"/>
                </mxCell>
                <mxCell id="862" value="•" style="rounded=0;whiteSpace=wrap;html=1;fontStyle=0;fontSize=12;fillColor=none;strokeColor=none;fontColor=#0000FF;" vertex="1" parent="1">
                    <mxGeometry x="670" y="360" width="20" height="20" as="geometry"/>
                </mxCell>
                <mxCell id="863" value="X" style="rounded=0;whiteSpace=wrap;html=1;fontStyle=0;fontSize=12;fillColor=none;strokeColor=none;" vertex="1" parent="1">
                    <mxGeometry x="670" y="380" width="20" height="20" as="geometry"/>
                </mxCell>
                <mxCell id="864" value="X" style="rounded=0;whiteSpace=wrap;html=1;fontStyle=0;fontSize=12;fillColor=none;strokeColor=none;" vertex="1" parent="1">
                    <mxGeometry x="690" y="340" width="20" height="20" as="geometry"/>
                </mxCell>
                <mxCell id="865" value="•" style="rounded=0;whiteSpace=wrap;html=1;fontStyle=0;fontSize=12;fillColor=none;strokeColor=none;fontColor=#0000FF;" vertex="1" parent="1">
                    <mxGeometry x="690" y="380" width="20" height="20" as="geometry"/>
                </mxCell>
                <mxCell id="866" value="" style="rounded=0;whiteSpace=wrap;html=1;fontStyle=0;fontSize=12;fillColor=none;strokeColor=none;" vertex="1" parent="1">
                    <mxGeometry x="710" y="340" width="20" height="20" as="geometry"/>
                </mxCell>
                <mxCell id="867" value="" style="rounded=0;whiteSpace=wrap;html=1;fontStyle=0;fontSize=12;fillColor=none;strokeColor=none;" vertex="1" parent="1">
                    <mxGeometry x="710" y="380" width="20" height="20" as="geometry"/>
                </mxCell>
                <mxCell id="868" value="•" style="rounded=0;whiteSpace=wrap;html=1;fontStyle=0;fontSize=12;fillColor=none;strokeColor=none;fontColor=#0000FF;" vertex="1" parent="1">
                    <mxGeometry x="710" y="400" width="20" height="20" as="geometry"/>
                </mxCell>
                <mxCell id="869" value="" style="rounded=0;whiteSpace=wrap;html=1;fontStyle=0;fontSize=12;fillColor=none;strokeColor=none;" vertex="1" parent="1">
                    <mxGeometry x="510" y="260" width="20" height="20" as="geometry"/>
                </mxCell>
                <mxCell id="870" value="X" style="rounded=0;whiteSpace=wrap;html=1;fontStyle=0;fontSize=12;fillColor=none;strokeColor=none;" vertex="1" parent="1">
                    <mxGeometry x="510" y="240" width="20" height="20" as="geometry"/>
                </mxCell>
                <mxCell id="871" value="X" style="rounded=0;whiteSpace=wrap;html=1;fontStyle=0;fontSize=12;fillColor=none;strokeColor=none;" vertex="1" parent="1">
                    <mxGeometry x="530" y="260" width="20" height="20" as="geometry"/>
                </mxCell>
                <mxCell id="872" value="" style="rounded=0;whiteSpace=wrap;html=1;fontStyle=0;fontSize=12;fillColor=none;strokeColor=none;" vertex="1" parent="1">
                    <mxGeometry x="530" y="240" width="20" height="20" as="geometry"/>
                </mxCell>
                <mxCell id="873" value="" style="rounded=0;whiteSpace=wrap;html=1;fontStyle=0;fontSize=12;fillColor=none;strokeColor=none;" vertex="1" parent="1">
                    <mxGeometry x="490" y="220" width="20" height="20" as="geometry"/>
                </mxCell>
                <mxCell id="874" value="X" style="rounded=0;whiteSpace=wrap;html=1;fontStyle=0;fontSize=12;fillColor=none;strokeColor=none;" vertex="1" parent="1">
                    <mxGeometry x="490" y="200" width="20" height="20" as="geometry"/>
                </mxCell>
                <mxCell id="875" value="" style="rounded=0;whiteSpace=wrap;html=1;fontStyle=0;fontSize=12;fillColor=none;strokeColor=none;" vertex="1" parent="1">
                    <mxGeometry x="650" y="260" width="20" height="20" as="geometry"/>
                </mxCell>
                <mxCell id="876" value="" style="rounded=0;whiteSpace=wrap;html=1;fontStyle=0;fontSize=12;fillColor=none;strokeColor=none;" vertex="1" parent="1">
                    <mxGeometry x="670" y="280" width="20" height="20" as="geometry"/>
                </mxCell>
                <mxCell id="877" value="" style="rounded=0;whiteSpace=wrap;html=1;fontStyle=0;fontSize=12;fillColor=none;strokeColor=none;" vertex="1" parent="1">
                    <mxGeometry x="670" y="300" width="20" height="20" as="geometry"/>
                </mxCell>
                <mxCell id="878" value="" style="rounded=0;whiteSpace=wrap;html=1;fontStyle=0;fontSize=12;fillColor=none;strokeColor=none;" vertex="1" parent="1">
                    <mxGeometry x="710" y="320" width="20" height="20" as="geometry"/>
                </mxCell>
                <mxCell id="879" value="" style="endArrow=none;html=1;fontSize=12;fontColor=#0000FF;exitX=1;exitY=1;exitDx=0;exitDy=0;entryX=0;entryY=0;entryDx=0;entryDy=0;" edge="1" parent="1" source="810" target="756">
                    <mxGeometry width="50" height="50" relative="1" as="geometry">
                        <mxPoint x="550" y="330" as="sourcePoint"/>
                        <mxPoint x="600" y="280" as="targetPoint"/>
                    </mxGeometry>
                </mxCell>
                <mxCell id="880" value="" style="endArrow=none;html=1;fontSize=12;fontColor=#0000FF;exitX=1;exitY=1;exitDx=0;exitDy=0;entryX=0;entryY=0;entryDx=0;entryDy=0;" edge="1" parent="1" source="814" target="748">
                    <mxGeometry width="50" height="50" relative="1" as="geometry">
                        <mxPoint x="500" y="430" as="sourcePoint"/>
                        <mxPoint x="500" y="170" as="targetPoint"/>
                    </mxGeometry>
                </mxCell>
                <mxCell id="881" value="X" style="rounded=0;whiteSpace=wrap;html=1;fontStyle=0;fontSize=12;fillColor=none;strokeColor=none;" vertex="1" parent="1">
                    <mxGeometry x="510" y="220" width="20" height="20" as="geometry"/>
                </mxCell>
                <mxCell id="882" value="X" style="rounded=0;whiteSpace=wrap;html=1;fontStyle=0;fontSize=12;fillColor=none;strokeColor=none;" vertex="1" parent="1">
                    <mxGeometry x="510" y="280" width="20" height="20" as="geometry"/>
                </mxCell>
                <mxCell id="883" value="" style="rounded=0;whiteSpace=wrap;html=1;fontStyle=0;fontSize=12;fillColor=none;strokeColor=none;" vertex="1" parent="1">
                    <mxGeometry x="510" y="300" width="20" height="20" as="geometry"/>
                </mxCell>
                <mxCell id="884" value="" style="rounded=0;whiteSpace=wrap;html=1;fontStyle=0;fontSize=12;fillColor=none;strokeColor=none;" vertex="1" parent="1">
                    <mxGeometry x="550" y="300" width="20" height="20" as="geometry"/>
                </mxCell>
                <mxCell id="885" value="" style="rounded=0;whiteSpace=wrap;html=1;fontStyle=0;fontSize=12;fillColor=none;strokeColor=none;" vertex="1" parent="1">
                    <mxGeometry x="550" y="320" width="20" height="20" as="geometry"/>
                </mxCell>
                <mxCell id="886" value="X" style="rounded=0;whiteSpace=wrap;html=1;fontStyle=0;fontSize=12;fillColor=none;strokeColor=none;" vertex="1" parent="1">
                    <mxGeometry x="570" y="280" width="20" height="20" as="geometry"/>
                </mxCell>
                <mxCell id="887" value="" style="rounded=0;whiteSpace=wrap;html=1;fontStyle=0;fontSize=12;fillColor=none;strokeColor=none;" vertex="1" parent="1">
                    <mxGeometry x="590" y="300" width="20" height="20" as="geometry"/>
                </mxCell>
                <mxCell id="888" value="" style="rounded=0;whiteSpace=wrap;html=1;fontStyle=0;fontSize=12;fillColor=none;strokeColor=none;" vertex="1" parent="1">
                    <mxGeometry x="570" y="340" width="20" height="20" as="geometry"/>
                </mxCell>
                <mxCell id="889" value="" style="rounded=0;whiteSpace=wrap;html=1;fontStyle=0;fontSize=12;fillColor=none;strokeColor=none;" vertex="1" parent="1">
                    <mxGeometry x="590" y="340" width="20" height="20" as="geometry"/>
                </mxCell>
                <mxCell id="890" value="" style="rounded=0;whiteSpace=wrap;html=1;fontStyle=0;fontSize=12;fillColor=none;strokeColor=none;" vertex="1" parent="1">
                    <mxGeometry x="530" y="340" width="20" height="20" as="geometry"/>
                </mxCell>
                <mxCell id="891" value="" style="rounded=0;whiteSpace=wrap;html=1;fontStyle=0;fontSize=12;fillColor=none;strokeColor=none;" vertex="1" parent="1">
                    <mxGeometry x="510" y="360" width="20" height="20" as="geometry"/>
                </mxCell>
                <mxCell id="892" value="" style="rounded=0;whiteSpace=wrap;html=1;fontStyle=0;fontSize=12;fillColor=none;strokeColor=none;" vertex="1" parent="1">
                    <mxGeometry x="530" y="360" width="20" height="20" as="geometry"/>
                </mxCell>
                <mxCell id="893" value="" style="rounded=0;whiteSpace=wrap;html=1;fontStyle=0;fontSize=12;fillColor=none;strokeColor=none;" vertex="1" parent="1">
                    <mxGeometry x="510" y="380" width="20" height="20" as="geometry"/>
                </mxCell>
                <mxCell id="894" value="" style="rounded=0;whiteSpace=wrap;html=1;fontStyle=0;fontSize=12;fillColor=none;strokeColor=none;" vertex="1" parent="1">
                    <mxGeometry x="530" y="380" width="20" height="20" as="geometry"/>
                </mxCell>
                <mxCell id="895" value="" style="rounded=0;whiteSpace=wrap;html=1;fontStyle=0;fontSize=12;fillColor=none;strokeColor=none;" vertex="1" parent="1">
                    <mxGeometry x="490" y="400" width="20" height="20" as="geometry"/>
                </mxCell>
                <mxCell id="896" value="" style="rounded=0;whiteSpace=wrap;html=1;fontStyle=0;fontSize=12;fillColor=none;strokeColor=none;" vertex="1" parent="1">
                    <mxGeometry x="650" y="400" width="20" height="20" as="geometry"/>
                </mxCell>
                <mxCell id="897" value="" style="rounded=0;whiteSpace=wrap;html=1;fontStyle=0;fontSize=12;fillColor=none;strokeColor=none;" vertex="1" parent="1">
                    <mxGeometry x="670" y="400" width="20" height="20" as="geometry"/>
                </mxCell>
                <mxCell id="898" value="" style="rounded=0;whiteSpace=wrap;html=1;fontStyle=0;fontSize=12;fillColor=none;strokeColor=none;" vertex="1" parent="1">
                    <mxGeometry x="690" y="400" width="20" height="20" as="geometry"/>
                </mxCell>
                <mxCell id="899" value="" style="rounded=0;whiteSpace=wrap;html=1;fontStyle=0;fontSize=12;fillColor=none;strokeColor=none;" vertex="1" parent="1">
                    <mxGeometry x="690" y="360" width="20" height="20" as="geometry"/>
                </mxCell>
                <mxCell id="900" value="" style="rounded=0;whiteSpace=wrap;html=1;fontStyle=0;fontSize=12;fillColor=none;strokeColor=none;" vertex="1" parent="1">
                    <mxGeometry x="710" y="360" width="20" height="20" as="geometry"/>
                </mxCell>
                <mxCell id="901" value="" style="rounded=0;whiteSpace=wrap;html=1;fontStyle=0;fontSize=12;fillColor=none;strokeColor=none;" vertex="1" parent="1">
                    <mxGeometry x="690" y="300" width="20" height="20" as="geometry"/>
                </mxCell>
                <mxCell id="902" value="" style="rounded=0;whiteSpace=wrap;html=1;fontStyle=0;fontSize=12;fillColor=none;strokeColor=none;" vertex="1" parent="1">
                    <mxGeometry x="690" y="320" width="20" height="20" as="geometry"/>
                </mxCell>
                <mxCell id="903" value="" style="rounded=0;whiteSpace=wrap;html=1;fontStyle=0;fontSize=12;fillColor=none;strokeColor=none;" vertex="1" parent="1">
                    <mxGeometry x="710" y="240" width="20" height="20" as="geometry"/>
                </mxCell>
                <mxCell id="904" value="" style="rounded=0;whiteSpace=wrap;html=1;fontStyle=0;fontSize=12;fillColor=none;strokeColor=none;" vertex="1" parent="1">
                    <mxGeometry x="710" y="280" width="20" height="20" as="geometry"/>
                </mxCell>
                <mxCell id="905" value="" style="rounded=0;whiteSpace=wrap;html=1;fontStyle=0;fontSize=12;fillColor=none;strokeColor=none;" vertex="1" parent="1">
                    <mxGeometry x="590" y="240" width="20" height="20" as="geometry"/>
                </mxCell>
                <mxCell id="906" value="X" style="rounded=0;whiteSpace=wrap;html=1;fontStyle=0;fontSize=12;fillColor=none;strokeColor=none;" vertex="1" parent="1">
                    <mxGeometry x="590" y="260" width="20" height="20" as="geometry"/>
                </mxCell>
                <mxCell id="907" value="" style="rounded=0;whiteSpace=wrap;html=1;fontStyle=0;fontSize=12;fillColor=none;strokeColor=none;" vertex="1" parent="1">
                    <mxGeometry x="570" y="240" width="20" height="20" as="geometry"/>
                </mxCell>
                <mxCell id="908" value="X" style="rounded=0;whiteSpace=wrap;html=1;fontStyle=0;fontSize=12;fillColor=none;strokeColor=none;" vertex="1" parent="1">
                    <mxGeometry x="610" y="320" width="20" height="20" as="geometry"/>
                </mxCell>
                <mxCell id="909" value="X" style="rounded=0;whiteSpace=wrap;html=1;fontStyle=0;fontSize=12;fillColor=none;strokeColor=none;" vertex="1" parent="1">
                    <mxGeometry x="630" y="260" width="20" height="20" as="geometry"/>
                </mxCell>
                <mxCell id="910" value="" style="rounded=0;whiteSpace=wrap;html=1;strokeColor=#82b366;fontSize=12;fillColor=none;" vertex="1" parent="1">
                    <mxGeometry x="530" y="220" width="40" height="40" as="geometry"/>
                </mxCell>
                <mxCell id="911" value="" style="rounded=0;whiteSpace=wrap;html=1;strokeColor=#d79b00;fontSize=12;fillColor=none;" vertex="1" parent="1">
                    <mxGeometry x="570" y="260" width="40" height="40" as="geometry"/>
                </mxCell>
                <mxCell id="912" value="" style="rounded=0;whiteSpace=wrap;html=1;strokeColor=#d79b00;fontSize=12;fillColor=none;" vertex="1" parent="1">
                    <mxGeometry x="610" y="300" width="40" height="40" as="geometry"/>
                </mxCell>
                <mxCell id="916" value="" style="rounded=0;whiteSpace=wrap;html=1;strokeColor=#d79b00;fontSize=12;fillColor=none;" vertex="1" parent="1">
                    <mxGeometry x="650" y="340" width="60" height="60" as="geometry"/>
                </mxCell>
                <mxCell id="917" value="" style="ellipse;whiteSpace=wrap;html=1;fillColor=none;strokeColor=#9673a6;fontColor=#9673A6;" vertex="1" parent="1">
                    <mxGeometry x="630" y="260" width="20" height="20" as="geometry"/>
                </mxCell>
            </root>
        </mxGraphModel>
    </diagram>
</mxfile>